<svg id="code" xmlns="http://www.w3.org/2000/svg" width="72" height="71.92" viewBox="0 0 72 71.92">
  <path id="Path_239" data-name="Path 239" d="M184.176,417.711h20.118v8.326H184.176Zm0,0" transform="translate(-158.276 -358.97)" fill="#5a5a5a"/>
  <path id="Path_240" data-name="Path 240" d="M68.225,59.907H3.692A3.692,3.692,0,0,1,0,56.215V3.692A3.692,3.692,0,0,1,3.692,0H68.225a3.692,3.692,0,0,1,3.692,3.692V56.215A3.692,3.692,0,0,1,68.225,59.907Zm0,0" transform="translate(0 0)" fill="#ffd86e"/>
  <path id="Path_241" data-name="Path 241" d="M461.292,3.7V56.218A3.692,3.692,0,0,1,457.6,59.91h-4.51a3.692,3.692,0,0,0,3.692-3.692V3.7A3.692,3.692,0,0,0,453.09,0h4.51A3.692,3.692,0,0,1,461.292,3.7Zm0,0" transform="translate(-389.374 -0.003)" fill="#ffb509"/>
  <path id="Path_242" data-name="Path 242" d="M71.917,362.754H0v5.2a3.692,3.692,0,0,0,3.692,3.692H68.225a3.692,3.692,0,0,0,3.692-3.692Zm0,0" transform="translate(0 -311.742)" fill="#838383"/>
  <path id="Path_243" data-name="Path 243" d="M461.292,362.75v5.2a3.692,3.692,0,0,1-3.692,3.692h-4.51a3.692,3.692,0,0,0,3.692-3.692v-5.2Zm0,0" transform="translate(-389.374 -311.738)" fill="#5a5a5a"/>
  <path id="Path_244" data-name="Path 244" d="M72.489,12.595H.57v-8.9A3.692,3.692,0,0,1,4.261,0H68.8a3.692,3.692,0,0,1,3.692,3.692Zm0,0" transform="translate(-0.49 0)" fill="#acacac"/>
  <path id="Path_245" data-name="Path 245" d="M461.371,3.695v8.9h-4.592v-8.9A3.692,3.692,0,0,0,453.086,0h4.593A3.692,3.692,0,0,1,461.371,3.695Zm0,0" transform="translate(-389.371 -0.003)" fill="#9c9c9c"/>
  <path id="Path_246" data-name="Path 246" d="M166.552,475.077H133.4a.724.724,0,0,1-.723-.723v-2.345a2.88,2.88,0,0,1,2.88-2.88H164.4a2.88,2.88,0,0,1,2.88,2.88v2.345A.724.724,0,0,1,166.552,475.077Zm0,0" transform="translate(-114.015 -403.158)" fill="#838383"/>
  <path id="Path_247" data-name="Path 247" d="M341.113,472.008v2.346a.724.724,0,0,1-.724.723h-2.554v-3.07a2.88,2.88,0,0,0-2.878-2.879h3.278A2.879,2.879,0,0,1,341.113,472.008Zm0,0" transform="translate(-287.853 -403.158)" fill="#5a5a5a"/>
  <g id="Group_206" data-name="Group 206" transform="translate(3.765 17.309)">
    <path id="Path_248" data-name="Path 248" d="M31.233,132.007a1.052,1.052,0,0,1-.746-.309l-3.4-3.4a1.054,1.054,0,0,1,0-1.491l3.4-3.4a1.055,1.055,0,1,1,1.492,1.491l-2.658,2.658,2.658,2.658a1.054,1.054,0,0,1-.746,1.8Zm0,0" transform="translate(-26.775 -123.091)" fill="#838383"/>
    <path id="Path_249" data-name="Path 249" d="M109.889,132.007a1.054,1.054,0,0,1-.746-1.8l2.658-2.658-2.658-2.658a1.055,1.055,0,0,1,1.492-1.491l3.4,3.4a1.054,1.054,0,0,1,0,1.491l-3.4,3.4A1.052,1.052,0,0,1,109.889,132.007Zm0,0" transform="translate(-97.295 -123.091)" fill="#838383"/>
    <path id="Path_250" data-name="Path 250" d="M72.275,132a1.056,1.056,0,0,1-.982-1.441l2.674-6.807a1.055,1.055,0,1,1,1.963.772l-2.674,6.806A1.055,1.055,0,0,1,72.275,132Zm0,0" transform="translate(-64.97 -123.088)" fill="#838383"/>
    <path id="Path_251" data-name="Path 251" d="M39.512,218.89H32.2a1.055,1.055,0,0,1,0-2.109h7.313a1.055,1.055,0,0,1,0,2.109Zm0,0" transform="translate(-30.53 -203.605)" fill="#838383"/>
    <path id="Path_252" data-name="Path 252" d="M125.4,218.89H112.547a1.055,1.055,0,0,1,0-2.109H125.4a1.055,1.055,0,1,1,0,2.109Zm0,0" transform="translate(-99.579 -203.605)" fill="#838383"/>
    <path id="Path_253" data-name="Path 253" d="M35.314,251.445H32.2a1.055,1.055,0,1,1,0-2.109h3.115a1.055,1.055,0,1,1,0,2.109Zm0,0" transform="translate(-30.53 -231.582)" fill="#838383"/>
    <path id="Path_254" data-name="Path 254" d="M177.628,251.445h-1.9a1.055,1.055,0,1,1,0-2.109h1.9a1.055,1.055,0,1,1,0,2.109Zm0,0" transform="translate(-153.877 -231.582)" fill="#838383"/>
    <path id="Path_255" data-name="Path 255" d="M90.755,251.445H81.438a1.055,1.055,0,1,1,0-2.109h9.318a1.055,1.055,0,1,1,0,2.109Zm0,0" transform="translate(-72.845 -231.582)" fill="#838383"/>
    <path id="Path_256" data-name="Path 256" d="M217.253,251.445H213.7a1.055,1.055,0,1,1,0-2.109h3.554a1.055,1.055,0,1,1,0,2.109Zm0,0" transform="translate(-186.507 -231.582)" fill="#838383"/>
    <path id="Path_257" data-name="Path 257" d="M167.689,147.871h-3.748a1.055,1.055,0,0,1,0-2.109h3.748a1.055,1.055,0,1,1,0,2.109Zm0,0" transform="translate(-143.746 -142.573)" fill="#838383"/>
    <path id="Path_258" data-name="Path 258" d="M243.31,147.871H220.442a1.055,1.055,0,0,1,0-2.109H243.31a1.055,1.055,0,0,1,0,2.109Zm0,0" transform="translate(-192.301 -142.573)" fill="#838383"/>
    <path id="Path_259" data-name="Path 259" d="M301.751,181.836h-9.263a1.055,1.055,0,0,1,0-2.109h9.263a1.055,1.055,0,0,1,0,2.109Zm0,0" transform="translate(-254.216 -171.762)" fill="#838383"/>
    <path id="Path_260" data-name="Path 260" d="M248.325,181.836H245.14a1.055,1.055,0,0,1,0-2.109h3.184a1.055,1.055,0,0,1,0,2.109Zm0,0" transform="translate(-213.526 -171.762)" fill="#838383"/>
    <path id="Path_261" data-name="Path 261" d="M171.738,181.836h-7.8a1.055,1.055,0,0,1,0-2.109h7.8a1.055,1.055,0,0,1,0,2.109Zm0,0" transform="translate(-143.742 -171.762)" fill="#838383"/>
    <path id="Path_262" data-name="Path 262" d="M103.105,283.73H95.793a1.055,1.055,0,0,1,0-2.109h7.313a1.055,1.055,0,0,1,0,2.109Zm0,0" transform="translate(-85.181 -259.327)" fill="#838383"/>
    <path id="Path_263" data-name="Path 263" d="M37.818,283.73H32.2a1.055,1.055,0,1,1,0-2.109h5.618a1.055,1.055,0,0,1,0,2.109Zm0,0" transform="translate(-30.53 -259.327)" fill="#838383"/>
    <path id="Path_264" data-name="Path 264" d="M183.681,283.73h-9.552a1.055,1.055,0,0,1,0-2.109h9.552a1.055,1.055,0,0,1,0,2.109Zm0,0" transform="translate(-152.501 -259.327)" fill="#838383"/>
  </g>
  <path id="Path_265" data-name="Path 265" d="M296.664,263.391H320.17v7.96H296.664Zm0,0" transform="translate(-254.946 -226.352)" fill="#64dcfc"/>
  <path id="Path_266" data-name="Path 266" d="M296.664,350.871H320.17v7.382H296.664Zm0,0" transform="translate(-254.946 -301.53)" fill="#64dcfc"/>
  <path id="Path_267" data-name="Path 267" d="M444.051,263.391h2.78v7.96h-2.78Zm0,0" transform="translate(-381.606 -226.352)" fill="#00d1fc"/>
  <path id="Path_268" data-name="Path 268" d="M444.051,350.871h2.78v7.382h-2.78Zm0,0" transform="translate(-381.606 -301.53)" fill="#00d1fc"/>
  <path id="Path_269" data-name="Path 269" d="M303.811,230.625h-27.4a1.049,1.049,0,0,1-1.049-1.049V224.3a1.049,1.049,0,0,1,1.049-1.049h27.4a1.049,1.049,0,0,1,1.049,1.049v5.276A1.049,1.049,0,0,1,303.811,230.625Zm0,0" transform="translate(-236.64 -191.856)" fill="#0396fd"/>
  <path id="Path_270" data-name="Path 270" d="M303.811,314.746h-27.4a1.049,1.049,0,0,1-1.049-1.049v-5.276a1.049,1.049,0,0,1,1.049-1.049h27.4a1.049,1.049,0,0,1,1.049,1.049V313.7A1.049,1.049,0,0,1,303.811,314.746Zm0,0" transform="translate(-236.64 -264.147)" fill="#0396fd"/>
  <path id="Path_271" data-name="Path 271" d="M303.811,398.867h-27.4a1.049,1.049,0,0,1-1.049-1.049v-5.276a1.049,1.049,0,0,1,1.049-1.049h27.4a1.049,1.049,0,0,1,1.049,1.049v5.276A1.049,1.049,0,0,1,303.811,398.867Zm0,0" transform="translate(-236.64 -336.439)" fill="#0396fd"/>
  <path id="Path_272" data-name="Path 272" d="M463.827,224.3v5.276a1.049,1.049,0,0,1-1.049,1.049h-2.435a1.049,1.049,0,0,0,1.049-1.049V224.3a1.049,1.049,0,0,0-1.049-1.049h2.435A1.049,1.049,0,0,1,463.827,224.3Zm0,0" transform="translate(-395.608 -191.856)" fill="#0077f0"/>
  <path id="Path_273" data-name="Path 273" d="M463.827,308.416v5.276a1.049,1.049,0,0,1-1.049,1.05h-2.435a1.048,1.048,0,0,0,1.049-1.05v-5.276a1.049,1.049,0,0,0-1.049-1.049h2.435A1.049,1.049,0,0,1,463.827,308.416Zm0,0" transform="translate(-395.608 -264.144)" fill="#0077f0"/>
  <path id="Path_274" data-name="Path 274" d="M463.827,392.545v5.276a1.049,1.049,0,0,1-1.049,1.049h-2.435a1.049,1.049,0,0,0,1.049-1.049v-5.276a1.048,1.048,0,0,0-1.049-1.049h2.435A1.048,1.048,0,0,1,463.827,392.545Zm0,0" transform="translate(-395.608 -336.442)" fill="#0077f0"/>
  <path id="Path_275" data-name="Path 275" d="M302,244.078h-5.223a1.055,1.055,0,0,1,0-2.109H302a1.055,1.055,0,1,1,0,2.109Zm0,0" transform="translate(-254.133 -207.942)" fill="#e7e7e7"/>
  <path id="Path_276" data-name="Path 276" d="M405.75,244.078h-7.375a1.055,1.055,0,0,1,0-2.109h7.374a1.055,1.055,0,0,1,0,2.109Zm0,0" transform="translate(-341.447 -207.942)" fill="#e7e7e7"/>
  <path id="Path_277" data-name="Path 277" d="M361.827,244.078h-1.69a1.055,1.055,0,0,1,0-2.109h1.69a1.055,1.055,0,0,1,0,2.109Zm0,0" transform="translate(-308.587 -207.942)" fill="#e7e7e7"/>
  <path id="Path_278" data-name="Path 278" d="M302,328.2h-5.223a1.055,1.055,0,0,1,0-2.109H302a1.055,1.055,0,1,1,0,2.109Zm0,0" transform="translate(-254.133 -280.234)" fill="#e7e7e7"/>
  <path id="Path_279" data-name="Path 279" d="M405.75,328.2h-7.375a1.055,1.055,0,0,1,0-2.109h7.374a1.055,1.055,0,0,1,0,2.109Zm0,0" transform="translate(-341.447 -280.234)" fill="#e7e7e7"/>
  <path id="Path_280" data-name="Path 280" d="M361.827,328.2h-1.69a1.055,1.055,0,0,1,0-2.109h1.69a1.055,1.055,0,0,1,0,2.109Zm0,0" transform="translate(-308.587 -280.234)" fill="#e7e7e7"/>
  <path id="Path_281" data-name="Path 281" d="M302,412.32h-5.223a1.055,1.055,0,0,1,0-2.109H302a1.055,1.055,0,1,1,0,2.109Zm0,0" transform="translate(-254.133 -352.525)" fill="#e7e7e7"/>
  <path id="Path_282" data-name="Path 282" d="M405.75,412.32h-7.375a1.055,1.055,0,0,1,0-2.109h7.374a1.055,1.055,0,0,1,0,2.109Zm0,0" transform="translate(-341.447 -352.525)" fill="#e7e7e7"/>
  <path id="Path_283" data-name="Path 283" d="M361.827,412.32h-1.69a1.055,1.055,0,0,1,0-2.109h1.69a1.055,1.055,0,0,1,0,2.109Zm0,0" transform="translate(-308.587 -352.525)" fill="#e7e7e7"/>
  <path id="Path_284" data-name="Path 284" d="M38.474,31.729a2.1,2.1,0,1,1-2.1-2.1A2.1,2.1,0,0,1,38.474,31.729Zm0,0" transform="translate(-29.454 -25.462)" fill="#ff5770"/>
  <path id="Path_285" data-name="Path 285" d="M96.149,31.729a2.1,2.1,0,1,1-2.1-2.1A2.1,2.1,0,0,1,96.149,31.729Zm0,0" transform="translate(-79.019 -25.462)" fill="#ffd86e"/>
  <path id="Path_286" data-name="Path 286" d="M153.825,31.729a2.1,2.1,0,1,1-2.1-2.1A2.1,2.1,0,0,1,153.825,31.729Zm0,0" transform="translate(-128.584 -25.462)" fill="#80e0dc"/>
  <path id="Path_287" data-name="Path 287" d="M42.458,31.733a2.1,2.1,0,0,1-3.547,1.518,2.1,2.1,0,0,0,1.4-3.617c.016,0,.034,0,.049,0a2.1,2.1,0,0,1,2.1,2.1Zm0,0" transform="translate(-33.438 -25.466)" fill="#ff435f"/>
  <path id="Path_288" data-name="Path 288" d="M100.127,31.733a2.1,2.1,0,0,1-3.549,1.518,2.1,2.1,0,0,0,1.4-3.617.453.453,0,0,1,.048,0,2.1,2.1,0,0,1,2.1,2.1Zm0,0" transform="translate(-82.997 -25.466)" fill="#ffb509"/>
  <path id="Path_289" data-name="Path 289" d="M157.8,31.733a2.1,2.1,0,0,1-3.549,1.518,2.1,2.1,0,0,0,1.4-3.617c.016,0,.034,0,.049,0a2.1,2.1,0,0,1,2.1,2.1Zm0,0" transform="translate(-132.562 -25.466)" fill="#00a8b0"/>
</svg>
