<svg xmlns="http://www.w3.org/2000/svg" width="292.22" height="235.391" viewBox="0 0 292.22 235.391">
  <g id="day93-programing" transform="translate(-160.2 -343.6)">
    <g id="XMLID_34_" transform="translate(160.2 345.6)">
      <path id="XMLID_223_" d="M448.3,656.541H164.32a4.1,4.1,0,0,1-4.12-4.12h0a4.1,4.1,0,0,1,4.12-4.12H448.3a4.1,4.1,0,0,1,4.12,4.12h0A4.1,4.1,0,0,1,448.3,656.541Z" transform="translate(-160.2 -509.721)" fill="#c9c9c9"/>
      <g id="XMLID_19_" transform="translate(10.072)">
        <g id="XMLID_163_" transform="translate(36.808 85.61)">
          <path id="XMLID_178_" d="M276.52,554.54a7.92,7.92,0,1,1,0-15.84h44.865v15.886H276.52Z" transform="translate(-265.853 -535.907)" fill="#cecece"/>
          <path id="XMLID_162_" d="M320.742,554.034H273.267A10.678,10.678,0,0,1,262.6,543.367h0A10.678,10.678,0,0,1,273.267,532.7h47.475Z" transform="translate(-262.6 -532.654)" fill="#fff"/>
          <line id="XMLID_164_" x2="47.795" transform="translate(7.737 8.241)" fill="none" stroke="#1f3969" stroke-linecap="round" stroke-linejoin="round" stroke-miterlimit="10" stroke-width="4"/>
          <line id="XMLID_173_" x2="47.795" transform="translate(7.737 13.093)" fill="none" stroke="#1f3969" stroke-linecap="round" stroke-linejoin="round" stroke-miterlimit="10" stroke-width="4"/>
          <path id="XMLID_179_" d="M276.52,554.54a7.92,7.92,0,1,1,0-15.84h44.865v15.886H276.52Z" transform="translate(-265.853 -535.907)" fill="none" stroke="#1f3969" stroke-linecap="round" stroke-linejoin="round" stroke-miterlimit="10" stroke-width="4"/>
          <path id="XMLID_161_" d="M273.267,551.287a7.92,7.92,0,1,1,0-15.84h45.644l1.831-2.747H273.267A10.678,10.678,0,0,0,262.6,543.367h0a10.678,10.678,0,0,0,10.667,10.667h47.475l-1.831-2.747Z" transform="translate(-262.6 -532.654)" fill="#ff3e3e"/>
          <path id="XMLID_182_" d="M273.267,551.287a7.92,7.92,0,1,1,0-15.84h45.644l1.831-2.747H273.267A10.678,10.678,0,0,0,262.6,543.367h0a10.678,10.678,0,0,0,10.667,10.667h47.475l-1.831-2.747Z" transform="translate(-262.6 -532.654)" fill="none" stroke="#1f3969" stroke-linecap="round" stroke-linejoin="round" stroke-miterlimit="10" stroke-width="4"/>
          <rect id="XMLID_224_" width="8.424" height="21.38" transform="translate(39.509)" fill="#1f3969" stroke="#1f3969" stroke-linecap="round" stroke-linejoin="round" stroke-miterlimit="10" stroke-width="4" opacity="0.28"/>
        </g>
        <g id="XMLID_160_" transform="translate(0 106.944)">
          <path id="XMLID_157_" d="M272.251,596.871H185.313a3.116,3.116,0,0,1-3.113-3.113V582.313a3.116,3.116,0,0,1,3.113-3.113h86.938a3.116,3.116,0,0,1,3.113,3.113v11.445A3.087,3.087,0,0,1,272.251,596.871Z" transform="translate(-182.2 -579.2)" fill="#50b56f"/>
          <g id="Group_203" data-name="Group 203" transform="translate(24.63 5.768)">
            <path id="Path_222" data-name="Path 222" d="M237.969,595.571h-1.19v2.518H236V592h1.969c1.419,0,2.106.778,2.106,1.785C240.074,594.7,239.479,595.571,237.969,595.571Zm0-.687c.916,0,1.282-.412,1.282-1.1s-.366-1.144-1.282-1.144h-1.19v2.243Z" transform="translate(-236 -591.908)" fill="#fff"/>
            <path id="Path_223" data-name="Path 223" d="M249.7,592h.87l1.511,3.067L253.591,592h.87l-1.969,3.8v2.289h-.778V595.8Z" transform="translate(-243.428 -591.908)" fill="#fff"/>
            <path id="Path_224" data-name="Path 224" d="M264.9,592h4.12v.641h-1.648v5.448h-.778v-5.448h-1.648V592Z" transform="translate(-251.669 -591.908)" fill="#fff"/>
            <path id="Path_225" data-name="Path 225" d="M283.791,595.342h-3.113v2.747H279.9V592h.778v2.655h3.113V592h.778v6.089h-.778Z" transform="translate(-259.802 -591.908)" fill="#fff"/>
            <path id="Path_226" data-name="Path 226" d="M299.267,598.026a3.113,3.113,0,1,1,3.067-3.113A3.022,3.022,0,0,1,299.267,598.026Zm0-.687a2.434,2.434,0,1,0-2.243-2.426A2.216,2.216,0,0,0,299.267,597.34Z" transform="translate(-268.64 -591.8)" fill="#fff"/>
            <path id="Path_227" data-name="Path 227" d="M320.461,592v6.089h-.778l-3.2-4.853v4.853H315.7V592h.778l3.2,4.807V592Z" transform="translate(-279.213 -591.908)" fill="#fff"/>
          </g>
          <path id="XMLID_146_" d="M272.251,596.871H185.313a3.116,3.116,0,0,1-3.113-3.113V582.313a3.116,3.116,0,0,1,3.113-3.113h86.938a3.116,3.116,0,0,1,3.113,3.113v11.445A3.087,3.087,0,0,1,272.251,596.871Z" transform="translate(-182.2 -579.2)" fill="none" stroke="#1f3969" stroke-linecap="round" stroke-linejoin="round" stroke-miterlimit="10" stroke-width="4"/>
        </g>
        <path id="XMLID_246_" d="M362.634,579.3H348.9v6.867A7.825,7.825,0,0,0,356.729,594h9.019V582.413A3.087,3.087,0,0,0,362.634,579.3Z" transform="translate(-272.583 -472.31)" fill="#1f3969" stroke="#1f3969" stroke-linecap="round" stroke-linejoin="round" stroke-miterlimit="10" stroke-width="4" opacity="0.28"/>
        <path id="XMLID_35_" d="M313.118,625.6H212.4a14.158,14.158,0,0,1,.916,5.219,14.334,14.334,0,0,1-.916,5.219H313.072a14.158,14.158,0,0,1-.916-5.219A14.938,14.938,0,0,1,313.118,625.6Z" transform="translate(-198.574 -497.413)" fill="#cecece"/>
        <rect id="XMLID_156_" width="106.166" height="2.747" transform="translate(11.125 125.394)" fill="#5f5aff"/>
        <rect id="XMLID_32_" width="106.166" height="2.747" transform="translate(11.125 125.394)" fill="none" stroke="#1f3969" stroke-linecap="round" stroke-linejoin="round" stroke-miterlimit="10" stroke-width="4"/>
        <rect id="XMLID_147_" width="106.166" height="2.747" transform="translate(11.125 138.579)" fill="#f6f9fd"/>
        <rect id="XMLID_39_" width="106.166" height="2.747" transform="translate(11.125 138.579)" fill="#5f5aff"/>
        <rect id="XMLID_37_" width="106.166" height="2.747" transform="translate(11.125 138.579)" fill="none" stroke="#1f3969" stroke-linecap="round" stroke-linejoin="round" stroke-miterlimit="10" stroke-width="4"/>
        <path id="XMLID_69_" d="M516.623,614.728,515.249,599.3H492.633l-1.373,15.428c-.32,3.571-2.472,7-5.86,9.751v.046h37.083v-.046C519.095,621.733,516.943,618.3,516.623,614.728Z" transform="translate(-346.592 -483.154)" fill="#bfcfe2"/>
        <path id="XMLID_33_" d="M500.224,599.3l-.824,9.248h24.264l-.824-9.248Z" transform="translate(-354.183 -483.154)" fill="#1f3969" stroke="#1f3969" stroke-linecap="round" stroke-linejoin="round" stroke-miterlimit="10" stroke-width="4" opacity="0.28"/>
        <path id="XMLID_10_" d="M516.623,614.728,515.249,599.3H492.633l-1.373,15.428c-.32,3.571-2.472,7-5.86,9.751v.046h37.083v-.046C519.095,621.733,516.943,618.3,516.623,614.728Z" transform="translate(-346.592 -483.154)" fill="none" stroke="#1f3969" stroke-linecap="round" stroke-linejoin="round" stroke-miterlimit="10" stroke-width="4"/>
        <path id="XMLID_13_" d="M506.061,479.6H361.394A5.51,5.51,0,0,1,355.9,474.1V379.794a5.51,5.51,0,0,1,5.494-5.494H506.061a5.51,5.51,0,0,1,5.494,5.494V474.1A5.48,5.48,0,0,1,506.061,479.6Z" transform="translate(-276.379 -361.161)" fill="#fff"/>
        <path id="XMLID_63_" d="M506.061,479.6H361.394A5.51,5.51,0,0,1,355.9,474.1V379.794a5.51,5.51,0,0,1,5.494-5.494H506.061a5.51,5.51,0,0,1,5.494,5.494V474.1A5.48,5.48,0,0,1,506.061,479.6Z" transform="translate(-276.379 -361.161)" fill="#bfcfe2"/>
        <path id="XMLID_4_" d="M506.061,479.6H361.394A5.51,5.51,0,0,1,355.9,474.1V379.794a5.51,5.51,0,0,1,5.494-5.494H506.061a5.51,5.51,0,0,1,5.494,5.494V474.1A5.48,5.48,0,0,1,506.061,479.6Z" transform="translate(-276.379 -361.161)" fill="none" stroke="#1f3969" stroke-linecap="round" stroke-linejoin="round" stroke-miterlimit="10" stroke-width="4"/>
        <rect id="XMLID_68_" width="79.933" height="140.09" transform="translate(227.419 20.935) rotate(90)" fill="#f6f9fd"/>
        <path id="XMLID_197_" d="M383.9,374.3v63.452a3.673,3.673,0,0,0,3.662,3.662h86.572a3.673,3.673,0,0,0,3.662-3.662V374.3Z" transform="translate(-291.56 -361.161)" fill="#1f3969" stroke="#1f3969" stroke-linecap="round" stroke-linejoin="round" stroke-miterlimit="10" stroke-width="4" opacity="0.28"/>
        <rect id="XMLID_11_" width="79.933" height="140.09" transform="translate(227.419 20.935) rotate(90)" fill="none" stroke="#1f3969" stroke-linecap="round" stroke-linejoin="round" stroke-miterlimit="10" stroke-width="4"/>
        <line id="XMLID_9_" x2="12.315" transform="translate(151.214 109.599)" fill="none" stroke="#1f3969" stroke-linecap="round" stroke-linejoin="round" stroke-miterlimit="10" stroke-width="4"/>
        <path id="XMLID_15_" d="M483.134,420.872H396.562a3.673,3.673,0,0,1-3.662-3.662V349.362a3.673,3.673,0,0,1,3.662-3.662h86.572a3.673,3.673,0,0,1,3.662,3.662v67.893A3.634,3.634,0,0,1,483.134,420.872Z" transform="translate(-296.44 -345.654)" fill="#2d425e"/>
        <path id="XMLID_17_" d="M486.8,354.527H392.9v-5.265a3.673,3.673,0,0,1,3.662-3.662h86.572a3.673,3.673,0,0,1,3.662,3.662Z" transform="translate(-296.44 -345.6)" fill="none" stroke="#1f3969" stroke-linecap="round" stroke-linejoin="round" stroke-miterlimit="10" stroke-width="4"/>
        <path id="XMLID_23_" d="M486.8,356.267H392.9v-7a3.673,3.673,0,0,1,3.662-3.662h86.572a3.673,3.673,0,0,1,3.662,3.662Z" transform="translate(-296.44 -345.6)" fill="#d0ddf0"/>
        <path id="XMLID_18_" d="M486.8,356.267H392.9v-7a3.673,3.673,0,0,1,3.662-3.662h86.572a3.673,3.673,0,0,1,3.662,3.662Z" transform="translate(-296.44 -345.6)" fill="none" stroke="#1f3969" stroke-linecap="round" stroke-linejoin="round" stroke-miterlimit="10" stroke-width="4"/>
        <path id="XMLID_20_" d="M486.8,356.267H392.9v-7a3.673,3.673,0,0,1,3.662-3.662h86.572a3.673,3.673,0,0,1,3.662,3.662Z" transform="translate(-296.44 -345.6)" fill="none" stroke="#1f3969" stroke-linecap="round" stroke-linejoin="round" stroke-miterlimit="10" stroke-width="4"/>
        <path id="XMLID_12_" d="M483.134,420.872H396.562a3.673,3.673,0,0,1-3.662-3.662V349.362a3.673,3.673,0,0,1,3.662-3.662h86.572a3.673,3.673,0,0,1,3.662,3.662v67.893A3.634,3.634,0,0,1,483.134,420.872Z" transform="translate(-296.44 -345.654)" fill="none" stroke="#1f3969" stroke-linecap="round" stroke-linejoin="round" stroke-miterlimit="10" stroke-width="4"/>
        <g id="XMLID_72_" transform="translate(175.112 24.63)">
          <path id="XMLID_7_" d="M621.468,469.99H568.362a3.673,3.673,0,0,1-3.662-3.662V410.062a3.673,3.673,0,0,1,3.662-3.662h53.106a3.673,3.673,0,0,1,3.662,3.662v56.265A3.644,3.644,0,0,1,621.468,469.99Z" transform="translate(-564.7 -403.195)" fill="#1f3969" stroke="#1f3969" stroke-linecap="round" stroke-linejoin="round" stroke-miterlimit="10" stroke-width="4" opacity="0.28"/>
          <path id="XMLID_16_" d="M629.468,462.99H576.362a3.673,3.673,0,0,1-3.662-3.662V403.062a3.673,3.673,0,0,1,3.662-3.662h53.106a3.673,3.673,0,0,1,3.662,3.662v56.265A3.644,3.644,0,0,1,629.468,462.99Z" transform="translate(-569.038 -399.4)" fill="#2aa1ff"/>
          <path id="XMLID_14_" d="M629.468,462.99H576.362a3.673,3.673,0,0,1-3.662-3.662V403.062a3.673,3.673,0,0,1,3.662-3.662h53.106a3.673,3.673,0,0,1,3.662,3.662v56.265A3.644,3.644,0,0,1,629.468,462.99Z" transform="translate(-569.038 -399.4)" fill="none" stroke="#1f3969" stroke-linecap="round" stroke-linejoin="round" stroke-miterlimit="10" stroke-width="4"/>
          <path id="XMLID_75_" d="M632.338,427.632H594.981a2.364,2.364,0,0,1-2.381-2.381v-3.571a2.364,2.364,0,0,1,2.381-2.381h37.357a2.364,2.364,0,0,1,2.381,2.381v3.571A2.364,2.364,0,0,1,632.338,427.632Z" transform="translate(-579.827 -410.19)" fill="none" stroke="#fff" stroke-linecap="round" stroke-linejoin="round" stroke-miterlimit="10" stroke-width="2" opacity="0.34"/>
          <g id="XMLID_143_" transform="translate(12.864 22.524)" opacity="0.34">
            <path id="XMLID_78_" d="M616.057,456.932H595.181a2.364,2.364,0,0,1-2.381-2.381v-3.571a2.364,2.364,0,0,1,2.381-2.381h20.876a2.364,2.364,0,0,1,2.381,2.381v3.571A2.424,2.424,0,0,1,616.057,456.932Z" transform="translate(-592.8 -448.6)" fill="none" stroke="#fff" stroke-linecap="round" stroke-linejoin="round" stroke-miterlimit="10" stroke-width="2"/>
            <path id="XMLID_79_" d="M667.084,456.932h-8.1a2.364,2.364,0,0,1-2.381-2.381v-3.571a2.364,2.364,0,0,1,2.381-2.381h8.1a2.364,2.364,0,0,1,2.381,2.381v3.571A2.364,2.364,0,0,1,667.084,456.932Z" transform="translate(-627.392 -448.6)" fill="none" stroke="#fff" stroke-linecap="round" stroke-linejoin="round" stroke-miterlimit="10" stroke-width="2"/>
          </g>
          <g id="XMLID_76_" transform="translate(12.819 44.774)">
            <line id="XMLID_135_" x2="42.073" fill="none" stroke="#fff" stroke-linecap="round" stroke-linejoin="round" stroke-miterlimit="10" stroke-width="2"/>
            <line id="XMLID_136_" x2="42.073" transform="translate(0 4.944)" fill="none" stroke="#fff" stroke-linecap="round" stroke-linejoin="round" stroke-miterlimit="10" stroke-width="2"/>
            <line id="XMLID_138_" x2="25.637" transform="translate(0 9.889)" fill="none" stroke="#fff" stroke-linecap="round" stroke-linejoin="round" stroke-miterlimit="10" stroke-width="2"/>
          </g>
        </g>
        <circle id="XMLID_24_" cx="1.831" cy="1.831" r="1.831" transform="translate(103.831 3.525)" fill="#1f3969"/>
        <circle id="XMLID_28_" cx="1.831" cy="1.831" r="1.831" transform="translate(110.195 3.525)" fill="#1f3969"/>
        <circle id="XMLID_38_" cx="1.831" cy="1.831" r="1.831" transform="translate(116.558 3.525)" fill="#1f3969"/>
        <g id="XMLID_61_" transform="translate(107.494 19.136)">
          <line id="XMLID_54_" x2="5.952" transform="translate(42.897)" fill="none" stroke="#fff" stroke-linecap="round" stroke-linejoin="round" stroke-miterlimit="10" stroke-width="4"/>
          <line id="XMLID_66_" x2="25.775" transform="translate(12.727)" fill="none" stroke="#7bffa0" stroke-linecap="round" stroke-linejoin="round" stroke-miterlimit="10" stroke-width="4"/>
          <line id="XMLID_29_" x2="9.065" fill="none" stroke="#9169ff" stroke-linecap="round" stroke-linejoin="round" stroke-miterlimit="10" stroke-width="4"/>
        </g>
        <g id="XMLID_42_" transform="translate(107.494 64.231)">
          <line id="XMLID_62_" x2="19.686" transform="translate(11.811)" fill="none" stroke="#9169ff" stroke-linecap="round" stroke-linejoin="round" stroke-miterlimit="10" stroke-width="4"/>
          <line id="XMLID_30_" x2="6.364" fill="none" stroke="#7bffa0" stroke-linecap="round" stroke-linejoin="round" stroke-miterlimit="10" stroke-width="4"/>
        </g>
        <g id="XMLID_27_" transform="translate(112.026 24.767)">
          <line id="XMLID_60_" x2="3.708" transform="translate(33.969)" fill="none" stroke="#fff" stroke-linecap="round" stroke-linejoin="round" stroke-miterlimit="10" stroke-width="4"/>
          <line id="XMLID_45_" x2="12.452" transform="translate(17.122)" fill="none" stroke="#9169ff" stroke-linecap="round" stroke-linejoin="round" stroke-miterlimit="10" stroke-width="4"/>
          <line id="XMLID_47_" x2="12.681" fill="none" stroke="#ffc47d" stroke-linecap="round" stroke-linejoin="round" stroke-miterlimit="10" stroke-width="4"/>
        </g>
        <g id="XMLID_49_" transform="translate(117.932 30.399)">
          <line id="XMLID_59_" x2="10.942" transform="translate(13.734)" fill="none" stroke="#fff" stroke-linecap="round" stroke-linejoin="round" stroke-miterlimit="10" stroke-width="4"/>
          <line id="XMLID_50_" x2="10.301" fill="none" stroke="#ff5757" stroke-linecap="round" stroke-linejoin="round" stroke-miterlimit="10" stroke-width="4"/>
        </g>
        <g id="XMLID_65_" transform="translate(112.026 36.03)">
          <line id="XMLID_58_" x2="2.243" transform="translate(21.105)" fill="none" stroke="#fff" stroke-linecap="round" stroke-linejoin="round" stroke-miterlimit="10" stroke-width="4"/>
          <line id="XMLID_70_" x2="5.082" transform="translate(12.04)" fill="none" stroke="#9169ff" stroke-linecap="round" stroke-linejoin="round" stroke-miterlimit="10" stroke-width="4"/>
          <line id="XMLID_67_" x2="8.195" fill="none" stroke="#7bffa0" stroke-linecap="round" stroke-linejoin="round" stroke-miterlimit="10" stroke-width="4"/>
        </g>
        <g id="XMLID_73_" transform="translate(112.026 41.706)">
          <line id="XMLID_77_" x2="14.604" transform="translate(17.58)" fill="none" stroke="#ffc47d" stroke-linecap="round" stroke-linejoin="round" stroke-miterlimit="10" stroke-width="4"/>
          <line id="XMLID_74_" x2="13.093" fill="none" stroke="#ff5757" stroke-linecap="round" stroke-linejoin="round" stroke-miterlimit="10" stroke-width="4"/>
        </g>
        <g id="XMLID_80_" transform="translate(117.932 47.337)">
          <line id="XMLID_64_" x2="7.92" transform="translate(28.567)" fill="none" stroke="#9169ff" stroke-linecap="round" stroke-linejoin="round" stroke-miterlimit="10" stroke-width="4"/>
          <line id="XMLID_84_" x2="12.681" transform="translate(11.674)" fill="none" stroke="#ff5757" stroke-linecap="round" stroke-linejoin="round" stroke-miterlimit="10" stroke-width="4"/>
          <line id="XMLID_81_" x2="7.188" fill="none" stroke="#7bffa0" stroke-linecap="round" stroke-linejoin="round" stroke-miterlimit="10" stroke-width="4"/>
        </g>
        <g id="XMLID_87_" transform="translate(117.932 52.969)">
          <line id="XMLID_95_" x2="6.913" transform="translate(17.443)" fill="none" stroke="#fff" stroke-linecap="round" stroke-linejoin="round" stroke-miterlimit="10" stroke-width="4"/>
          <line id="XMLID_90_" x2="12.681" fill="none" stroke="#9169ff" stroke-linecap="round" stroke-linejoin="round" stroke-miterlimit="10" stroke-width="4"/>
        </g>
        <g id="XMLID_98_" transform="translate(112.026 58.6)">
          <line id="XMLID_71_" x2="7.92" transform="translate(41.34)" fill="none" stroke="#fff" stroke-linecap="round" stroke-linejoin="round" stroke-miterlimit="10" stroke-width="4"/>
          <line id="XMLID_102_" x2="19.915" transform="translate(17.122)" fill="none" stroke="#ffc47d" stroke-linecap="round" stroke-linejoin="round" stroke-miterlimit="10" stroke-width="4"/>
          <line id="XMLID_99_" x2="12.681" fill="none" stroke="#fff" stroke-linecap="round" stroke-linejoin="round" stroke-miterlimit="10" stroke-width="4"/>
        </g>
        <line id="XMLID_145_" x2="98.658" transform="translate(14.97 131.345)" fill="none" stroke="#1f3969" stroke-linecap="round" stroke-linejoin="round" stroke-miterlimit="10" stroke-width="4"/>
        <line id="XMLID_151_" x2="98.658" transform="translate(14.97 135.008)" fill="none" stroke="#1f3969" stroke-linecap="round" stroke-linejoin="round" stroke-miterlimit="10" stroke-width="4"/>
        <path id="XMLID_158_" d="M313.118,625.6H212.4a14.158,14.158,0,0,1,.916,5.219,14.334,14.334,0,0,1-.916,5.219H313.072a14.158,14.158,0,0,1-.916-5.219A14.938,14.938,0,0,1,313.118,625.6Z" transform="translate(-198.574 -497.413)" fill="none" stroke="#1f3969" stroke-linecap="round" stroke-linejoin="round" stroke-miterlimit="10" stroke-width="4"/>
      </g>
      <g id="XMLID_222_" transform="translate(254.176 90.862)">
        <g id="XMLID_174_" transform="translate(1.472)">
          <rect id="XMLID_177_" width="4.487" height="33.237" transform="translate(0 0.523) rotate(-6.696)" fill="#ffa364"/>
          <rect id="XMLID_31_" width="4.487" height="3.388" transform="translate(0.006 0.558) rotate(-6.696)" fill="#2aa1ff"/>
          <rect id="XMLID_217_" width="4.487" height="3.388" transform="translate(0.006 0.558) rotate(-6.696)" fill="none" stroke="#1f3969" stroke-linecap="round" stroke-linejoin="round" stroke-miterlimit="10" stroke-width="4"/>
          <rect id="XMLID_22_" width="4.487" height="33.237" transform="translate(0 0.523) rotate(-6.696)" fill="none" stroke="#1f3969" stroke-linecap="round" stroke-linejoin="round" stroke-miterlimit="10" stroke-width="4"/>
        </g>
        <g id="XMLID_189_" transform="translate(10.094 6.277)">
          <rect id="XMLID_218_" width="4.487" height="33.237" transform="matrix(0.994, 0.108, -0.108, 0.994, 3.593, 0)" fill="#ff5252"/>
          <rect id="XMLID_214_" width="4.487" height="33.237" transform="matrix(0.994, 0.108, -0.108, 0.994, 3.593, 0)" fill="none" stroke="#1f3969" stroke-linecap="round" stroke-linejoin="round" stroke-miterlimit="10" stroke-width="4"/>
          <rect id="XMLID_220_" width="4.487" height="3.388" transform="matrix(0.994, 0.108, -0.108, 0.994, 3.626, 0.008)" fill="#2d425e"/>
          <rect id="XMLID_211_" width="4.487" height="3.388" transform="matrix(0.994, 0.108, -0.108, 0.994, 3.626, 0.008)" fill="none" stroke="#1f3969" stroke-linecap="round" stroke-linejoin="round" stroke-miterlimit="10" stroke-width="4"/>
        </g>
        <path id="XMLID_26_" d="M736.322,621.96H718.33L715.4,594.4h23.852Z" transform="translate(-715.4 -571.359)" fill="#6567c3"/>
        <path id="XMLID_233_" d="M715.4,594.4l.046.5h18.175l-2.884,27.057h5.585l2.93-27.56Z" transform="translate(-715.4 -571.359)" fill="#6567c3"/>
        <path id="XMLID_21_" d="M736.322,621.96H718.33L715.4,594.4h23.852Z" transform="translate(-715.4 -571.359)" fill="none" stroke="#1f3969" stroke-linecap="round" stroke-linejoin="round" stroke-miterlimit="10" stroke-width="4"/>
      </g>
    </g>
    <g id="Group_205" data-name="Group 205" transform="translate(214.954 561.961)">
      <g id="Group_204" data-name="Group 204" transform="translate(0 0)">
        <path id="Path_228" data-name="Path 228" d="M285.2,828.306H282v6.959h-2.2V818.6h5.4c3.937,0,5.768,2.152,5.768,4.9C290.971,826.016,289.368,828.306,285.2,828.306Zm0-1.785c2.472,0,3.525-1.19,3.525-3.022,0-1.923-1.053-3.067-3.525-3.067H282v6.135h3.2Z" transform="translate(-279.8 -818.417)" fill="#e2e2e2"/>
        <path id="Path_229" data-name="Path 229" d="M320.648,818.6c3.937,0,5.768,2.2,5.768,4.9a4.693,4.693,0,0,1-3.983,4.761l4.166,7H323.99l-3.983-6.821H317.4v6.821h-2.2V818.6Zm0,1.785h-3.2V826.7h3.2c2.472,0,3.525-1.328,3.525-3.2S323.12,820.385,320.648,820.385Z" transform="translate(-298.994 -818.417)" fill="#e2e2e2"/>
        <path id="Path_230" data-name="Path 230" d="M358.878,835.231a8.516,8.516,0,1,1,8.378-8.515A8.245,8.245,0,0,1,358.878,835.231Zm0-1.923c3.525,0,6.135-2.564,6.135-6.638s-2.61-6.638-6.135-6.638-6.135,2.518-6.135,6.638S355.353,833.308,358.878,833.308Z" transform="translate(-318.133 -818.2)" fill="#e2e2e2"/>
        <path id="Path_231" data-name="Path 231" d="M412.869,823.19H410.26a5.378,5.378,0,0,0-5.082-3.067c-3.525,0-6.135,2.518-6.135,6.547,0,3.983,2.609,6.547,6.135,6.547a5.6,5.6,0,0,0,5.86-5.4H404.4v-1.786h8.973v1.694a8.093,8.093,0,0,1-8.195,7.462,8.493,8.493,0,0,1,0-16.985A7.858,7.858,0,0,1,412.869,823.19Z" transform="translate(-343.236 -818.2)" fill="#e2e2e2"/>
        <path id="Path_232" data-name="Path 232" d="M449.748,818.6c3.937,0,5.768,2.2,5.768,4.9a4.693,4.693,0,0,1-3.983,4.761l4.166,7h-2.61l-3.983-6.821H446.5v6.821h-2.2V818.6Zm0,1.785h-3.2V826.7h3.2c2.472,0,3.525-1.328,3.525-3.2C453.319,821.622,452.266,820.385,449.748,820.385Z" transform="translate(-368.99 -818.417)" fill="#e2e2e2"/>
        <path id="Path_233" data-name="Path 233" d="M490.1,831.664h-7.279l-1.328,3.708H479.2l6.043-16.573h2.518l6,16.573h-2.289ZM486.433,821.5l-3.022,8.424h6.043Z" transform="translate(-387.913 -818.525)" fill="#e2e2e2"/>
        <path id="Path_234" data-name="Path 234" d="M521.9,818.9h2.335l6.135,13.688L536.5,818.9h2.335v16.527h-2.2V823.066l-5.494,12.361h-1.511L524.1,823.066v12.361h-2.2Z" transform="translate(-411.064 -818.58)" fill="#e2e2e2"/>
        <path id="Path_235" data-name="Path 235" d="M572.1,818.9h2.335l6.135,13.688L586.7,818.9h2.335v16.527h-2.2V823.066l-5.494,12.361h-1.511L574.3,823.066v12.361h-2.2Z" transform="translate(-438.282 -818.58)" fill="#e2e2e2"/>
        <path id="Path_236" data-name="Path 236" d="M622.3,818.6h2.2v16.664h-2.2Z" transform="translate(-465.5 -818.417)" fill="#e2e2e2"/>
        <path id="Path_237" data-name="Path 237" d="M653.439,818.5v16.71h-2.2L642.5,821.934V835.21h-2.2V818.5h2.2l8.744,13.231V818.5Z" transform="translate(-475.26 -818.363)" fill="#e2e2e2"/>
        <path id="Path_238" data-name="Path 238" d="M696.569,823.19h-2.61a5.378,5.378,0,0,0-5.082-3.067c-3.525,0-6.135,2.518-6.135,6.547,0,3.983,2.609,6.547,6.135,6.547a5.6,5.6,0,0,0,5.86-5.4H688.1v-1.786h8.973v1.694a8.093,8.093,0,0,1-8.195,7.462,8.493,8.493,0,0,1,0-16.985A7.858,7.858,0,0,1,696.569,823.19Z" transform="translate(-497.056 -818.2)" fill="#e2e2e2"/>
      </g>
    </g>
  </g>
</svg>
