<svg xmlns="http://www.w3.org/2000/svg" width="325.9" height="237.464" viewBox="0 0 325.9 237.464">
  <g id="day95-app-development" transform="translate(-153.2 -352.2)">
    <g id="XMLID_238_" transform="translate(153.2 354.2)">
      <path id="XMLID_1313_" d="M474.825,656.756h-317.4a4.211,4.211,0,0,1-4.228-4.228h0a4.211,4.211,0,0,1,4.228-4.228H474.872a4.211,4.211,0,0,1,4.228,4.228h0A4.281,4.281,0,0,1,474.825,656.756Z" transform="translate(-153.2 -510.132)" fill="#848484" opacity="0.28"/>
      <g id="XMLID_45_" transform="translate(267.128 65.772)">
        <path id="XMLID_41_" d="M762.585,531.643a33.6,33.6,0,0,0-30.4-33.5V494.2H721.9v75.5h10.289V565.14A33.635,33.635,0,0,0,762.585,531.643Zm-30.443,22.644V509.046a22.847,22.847,0,0,1,0,45.242Z" transform="translate(-721.853 -494.2)" fill="#f09f54"/>
        <path id="XMLID_222_" d="M732.089,498.146V494.2H721.8v75.5h10.289V565.14a33.655,33.655,0,0,0,0-66.993Zm0,63.517v3.9h-9.631V497.63h9.631v3.993a30.161,30.161,0,0,1,0,60.04Z" transform="translate(-721.8 -494.2)" fill="#f09f54" opacity="0.29"/>
        <path id="XMLID_48_" d="M762.585,531.643a33.6,33.6,0,0,0-30.4-33.5V494.2H721.9v75.5h10.289V565.14A33.635,33.635,0,0,0,762.585,531.643Zm-30.443,22.644V509.046a22.847,22.847,0,0,1,0,45.242Z" transform="translate(-721.853 -494.2)" fill="none" stroke="#444e59" stroke-linecap="round" stroke-linejoin="round" stroke-miterlimit="10" stroke-width="4"/>
        <g id="XMLID_49_" transform="translate(0 7.564)">
          <g id="XMLID_67_" transform="translate(0 60.369)">
            <line id="XMLID_68_" x1="4.134" fill="none" stroke="#444e59" stroke-linecap="round" stroke-linejoin="round" stroke-miterlimit="10" stroke-width="3"/>
          </g>
          <g id="XMLID_65_" transform="translate(0 52.852)">
            <line id="XMLID_66_" x1="4.134" fill="none" stroke="#444e59" stroke-linecap="round" stroke-linejoin="round" stroke-miterlimit="10" stroke-width="3"/>
          </g>
          <g id="XMLID_63_" transform="translate(0 45.289)">
            <line id="XMLID_64_" x1="4.134" fill="none" stroke="#444e59" stroke-linecap="round" stroke-linejoin="round" stroke-miterlimit="10" stroke-width="3"/>
          </g>
          <g id="XMLID_61_" transform="translate(0 37.725)">
            <line id="XMLID_62_" x1="4.134" fill="none" stroke="#444e59" stroke-linecap="round" stroke-linejoin="round" stroke-miterlimit="10" stroke-width="3"/>
          </g>
          <g id="XMLID_59_" transform="translate(0 30.208)">
            <line id="XMLID_60_" x1="4.134" fill="none" stroke="#444e59" stroke-linecap="round" stroke-linejoin="round" stroke-miterlimit="10" stroke-width="3"/>
          </g>
          <g id="XMLID_56_" transform="translate(0 22.644)">
            <line id="XMLID_57_" x1="4.134" fill="none" stroke="#444e59" stroke-linecap="round" stroke-linejoin="round" stroke-miterlimit="10" stroke-width="3"/>
          </g>
          <g id="XMLID_54_" transform="translate(0 15.081)">
            <line id="XMLID_55_" x1="4.134" fill="none" stroke="#444e59" stroke-linecap="round" stroke-linejoin="round" stroke-miterlimit="10" stroke-width="3"/>
          </g>
          <g id="XMLID_52_" transform="translate(0 7.517)">
            <line id="XMLID_53_" x1="4.134" fill="none" stroke="#444e59" stroke-linecap="round" stroke-linejoin="round" stroke-miterlimit="10" stroke-width="3"/>
          </g>
          <g id="XMLID_50_">
            <line id="XMLID_51_" x1="4.134" fill="none" stroke="#444e59" stroke-linecap="round" stroke-linejoin="round" stroke-miterlimit="10" stroke-width="3"/>
          </g>
        </g>
      </g>
      <g id="XMLID_212_" transform="translate(244.343 27.577)">
        <rect id="XMLID_207_" width="15.55" height="113.504" fill="#f09f54"/>
        <rect id="XMLID_208_" width="15.55" height="113.504" fill="#f09f54"/>
        <rect id="XMLID_209_" width="6.765" height="113.504" transform="translate(8.785)" fill="#f09f54" opacity="0.29"/>
        <rect id="XMLID_121_" width="15.55" height="113.504" fill="none" stroke="#444e59" stroke-linecap="round" stroke-linejoin="round" stroke-miterlimit="10" stroke-width="4"/>
        <g id="XMLID_203_" transform="translate(0 4.745)">
          <g id="XMLID_266_" transform="translate(0 97.295)">
            <line id="XMLID_269_" x1="5.403" fill="none" stroke="#444e59" stroke-linecap="round" stroke-linejoin="round" stroke-miterlimit="10" stroke-width="3"/>
            <line id="XMLID_268_" x1="3.336" transform="translate(0 5.403)" fill="none" stroke="#444e59" stroke-linecap="round" stroke-linejoin="round" stroke-miterlimit="10" stroke-width="3"/>
          </g>
          <g id="XMLID_262_" transform="translate(0 86.49)">
            <line id="XMLID_265_" x1="5.403" fill="none" stroke="#444e59" stroke-linecap="round" stroke-linejoin="round" stroke-miterlimit="10" stroke-width="3"/>
            <line id="XMLID_264_" x1="3.336" transform="translate(0 5.403)" fill="none" stroke="#444e59" stroke-linecap="round" stroke-linejoin="round" stroke-miterlimit="10" stroke-width="3"/>
          </g>
          <g id="XMLID_258_" transform="translate(0 75.685)">
            <line id="XMLID_261_" x1="5.403" fill="none" stroke="#444e59" stroke-linecap="round" stroke-linejoin="round" stroke-miterlimit="10" stroke-width="3"/>
            <line id="XMLID_260_" x1="3.336" transform="translate(0 5.403)" fill="none" stroke="#444e59" stroke-linecap="round" stroke-linejoin="round" stroke-miterlimit="10" stroke-width="3"/>
          </g>
          <g id="XMLID_254_" transform="translate(0 64.832)">
            <line id="XMLID_257_" x1="5.403" fill="none" stroke="#444e59" stroke-linecap="round" stroke-linejoin="round" stroke-miterlimit="10" stroke-width="3"/>
            <line id="XMLID_256_" x1="3.336" transform="translate(0 5.403)" fill="none" stroke="#444e59" stroke-linecap="round" stroke-linejoin="round" stroke-miterlimit="10" stroke-width="3"/>
          </g>
          <g id="XMLID_249_" transform="translate(0 54.027)">
            <line id="XMLID_253_" x1="5.403" fill="none" stroke="#444e59" stroke-linecap="round" stroke-linejoin="round" stroke-miterlimit="10" stroke-width="3"/>
            <line id="XMLID_251_" x1="3.336" transform="translate(0 5.403)" fill="none" stroke="#444e59" stroke-linecap="round" stroke-linejoin="round" stroke-miterlimit="10" stroke-width="3"/>
          </g>
          <g id="XMLID_245_" transform="translate(0 43.222)">
            <line id="XMLID_248_" x1="5.403" fill="none" stroke="#444e59" stroke-linecap="round" stroke-linejoin="round" stroke-miterlimit="10" stroke-width="3"/>
            <line id="XMLID_247_" x1="3.336" transform="translate(0 5.403)" fill="none" stroke="#444e59" stroke-linecap="round" stroke-linejoin="round" stroke-miterlimit="10" stroke-width="3"/>
          </g>
          <g id="XMLID_223_" transform="translate(0 32.416)">
            <line id="XMLID_244_" x1="5.403" fill="none" stroke="#444e59" stroke-linecap="round" stroke-linejoin="round" stroke-miterlimit="10" stroke-width="3"/>
            <line id="XMLID_243_" x1="3.336" transform="translate(0 5.403)" fill="none" stroke="#444e59" stroke-linecap="round" stroke-linejoin="round" stroke-miterlimit="10" stroke-width="3"/>
          </g>
          <g id="XMLID_215_" transform="translate(0 21.611)">
            <line id="XMLID_219_" x1="5.403" fill="none" stroke="#444e59" stroke-linecap="round" stroke-linejoin="round" stroke-miterlimit="10" stroke-width="3"/>
            <line id="XMLID_218_" x1="3.336" transform="translate(0 5.403)" fill="none" stroke="#444e59" stroke-linecap="round" stroke-linejoin="round" stroke-miterlimit="10" stroke-width="3"/>
          </g>
          <g id="XMLID_118_" transform="translate(0 10.805)">
            <line id="XMLID_210_" x1="5.403" fill="none" stroke="#444e59" stroke-linecap="round" stroke-linejoin="round" stroke-miterlimit="10" stroke-width="3"/>
            <line id="XMLID_141_" x1="3.336" transform="translate(0 5.403)" fill="none" stroke="#444e59" stroke-linecap="round" stroke-linejoin="round" stroke-miterlimit="10" stroke-width="3"/>
          </g>
          <g id="XMLID_36_">
            <line id="XMLID_113_" x1="5.403" fill="none" stroke="#444e59" stroke-linecap="round" stroke-linejoin="round" stroke-miterlimit="10" stroke-width="3"/>
            <line id="XMLID_112_" x1="3.336" transform="translate(0 5.403)" fill="none" stroke="#444e59" stroke-linecap="round" stroke-linejoin="round" stroke-miterlimit="10" stroke-width="3"/>
          </g>
        </g>
      </g>
      <g id="XMLID_1_" transform="translate(199.853 55.014)">
        <rect id="XMLID_93_" width="6.06" height="16.02" transform="translate(15.738)" fill="#848484"/>
        <rect id="XMLID_237_" width="2.255" height="16.02" transform="translate(15.738)" fill="#848484" opacity="0.25"/>
        <rect id="XMLID_40_" width="6.06" height="16.02" transform="translate(15.738)" fill="none" stroke="#444e59" stroke-linecap="round" stroke-linejoin="round" stroke-miterlimit="10" stroke-width="4"/>
        <rect id="XMLID_95_" width="2.772" height="7.752" transform="translate(17.383 16.067)" fill="#fff"/>
        <rect id="XMLID_42_" width="2.772" height="7.752" transform="translate(17.383 16.067)" fill="none" stroke="#444e59" stroke-linecap="round" stroke-linejoin="round" stroke-miterlimit="10" stroke-width="4"/>
        <g id="XMLID_16_" transform="translate(0 30.725)">
          <path id="XMLID_98_" d="M592.694,536.7,578.6,592l21.423-54.544Z" transform="translate(-578.6 -536.7)" fill="#fff"/>
          <path id="XMLID_37_" d="M592.694,536.7,578.6,592l21.423-54.544Z" transform="translate(-578.6 -536.7)" fill="none" stroke="#444e59" stroke-linecap="round" stroke-linejoin="round" stroke-miterlimit="10" stroke-width="4"/>
          <path id="XMLID_97_" d="M620.382,536.7,634.476,592,613.1,537.452Z" transform="translate(-596.892 -536.7)" fill="#fff"/>
          <path id="XMLID_38_" d="M620.382,536.7,634.476,592,613.1,537.452Z" transform="translate(-596.892 -536.7)" fill="none" stroke="#444e59" stroke-linecap="round" stroke-linejoin="round" stroke-miterlimit="10" stroke-width="4"/>
        </g>
        <circle id="XMLID_91_" cx="9.396" cy="9.396" r="9.396" transform="translate(9.396 22.785)" fill="#71a850"/>
        <path id="XMLID_241_" d="M601.231,529.2a9.416,9.416,0,0,1,8.081-9.3A11.56,11.56,0,0,0,608,519.8a9.4,9.4,0,0,0,0,18.792,12.376,12.376,0,0,0,1.315-.094A9.416,9.416,0,0,1,601.231,529.2Z" transform="translate(-589.204 -497.015)" fill="#71a850" opacity="0.4"/>
        <circle id="XMLID_39_" cx="9.396" cy="9.396" r="9.396" transform="translate(9.396 22.785)" fill="none" stroke="#444e59" stroke-linecap="round" stroke-linejoin="round" stroke-miterlimit="10" stroke-width="4"/>
        <circle id="XMLID_94_" cx="3.195" cy="3.195" r="3.195" transform="translate(15.597 28.987)" fill="#444e59"/>
        <circle id="XMLID_92_" cx="3.195" cy="3.195" r="3.195" transform="translate(15.597 28.987)" fill="none" stroke="#444e59" stroke-linecap="round" stroke-linejoin="round" stroke-miterlimit="10" stroke-width="4"/>
      </g>
      <path id="XMLID_75_" d="M468.991,495.14H406.977a6.6,6.6,0,0,1-6.577-6.577V360.777a6.6,6.6,0,0,1,6.577-6.577h62.014a6.6,6.6,0,0,1,6.577,6.577V488.563A6.6,6.6,0,0,1,468.991,495.14Z" transform="translate(-284.266 -354.2)" fill="#848484"/>
      <path id="XMLID_116_" d="M541.946,354.2H538a6.6,6.6,0,0,1,6.577,6.577V488.563A6.6,6.6,0,0,1,538,495.14h3.993a6.6,6.6,0,0,0,6.577-6.577V360.777A6.637,6.637,0,0,0,541.946,354.2Z" transform="translate(-357.221 -354.2)" fill="#848484" opacity="0.28"/>
      <path id="XMLID_81_" d="M404.3,488.563V360.777a6.6,6.6,0,0,1,6.577-6.577h-3.9a6.6,6.6,0,0,0-6.577,6.577V488.563a6.6,6.6,0,0,0,6.577,6.577h3.9A6.6,6.6,0,0,1,404.3,488.563Z" transform="translate(-284.266 -354.2)" fill="#848484" opacity="0.48"/>
      <path id="XMLID_3_" d="M468.991,495.14H406.977a6.6,6.6,0,0,1-6.577-6.577V360.777a6.6,6.6,0,0,1,6.577-6.577h62.014a6.6,6.6,0,0,1,6.577,6.577V488.563A6.6,6.6,0,0,1,468.991,495.14Z" transform="translate(-284.266 -354.2)" fill="none" stroke="#444e59" stroke-linecap="round" stroke-linejoin="round" stroke-miterlimit="10" stroke-width="4"/>
      <rect id="XMLID_77_" width="105.235" height="75.168" transform="translate(191.311 17.612) rotate(90)" fill="#e9fbff"/>
      <path id="XMLID_5_" d="M546.451,434.686h-5.873a5.774,5.774,0,0,1-5.779-5.779V414.579a5.774,5.774,0,0,1,5.779-5.779h5.873Z" transform="translate(-355.524 -383.149)" fill="#c9c9c9"/>
      <path id="XMLID_2_" d="M404.722,535.911H400.4V490.2h4.322a5.875,5.875,0,0,1,5.872,5.872v33.966A5.9,5.9,0,0,1,404.722,535.911Z" transform="translate(-284.266 -426.307)" fill="#c9c9c9"/>
      <rect id="XMLID_6_" width="105.235" height="75.168" transform="translate(191.311 17.612) rotate(90)" fill="none" stroke="#444e59" stroke-linecap="round" stroke-linejoin="round" stroke-miterlimit="10" stroke-width="4"/>
      <g id="XMLID_4_" transform="translate(140.094 9.396)">
        <line id="XMLID_9_" x2="3.289" transform="translate(23.96)" fill="none" stroke="#444e59" stroke-linecap="round" stroke-linejoin="round" stroke-miterlimit="10" stroke-width="5"/>
        <line id="XMLID_7_" x2="18.792" fill="none" stroke="#444e59" stroke-linecap="round" stroke-linejoin="round" stroke-miterlimit="10" stroke-width="5"/>
      </g>
      <g id="XMLID_228_" transform="translate(148.551 125.624)">
        <circle id="XMLID_8_" cx="5.168" cy="5.168" r="5.168" transform="translate(0)" fill="#848484" opacity="0.29"/>
        <circle id="XMLID_78_" cx="3.946" cy="3.946" r="3.946" transform="translate(1.221 1.221)" fill="#444e59"/>
      </g>
      <g id="XMLID_14_" transform="translate(125.296 27.577)" opacity="0.3">
        <g id="XMLID_32_" transform="translate(0 67.651)">
          <g id="XMLID_58_">
            <path id="Path_134" data-name="Path 134" d="M431.175,571.934h-7.517a3.769,3.769,0,0,1-3.758-3.758v-7.517a3.769,3.769,0,0,1,3.758-3.758h7.517a3.769,3.769,0,0,1,3.758,3.758v7.517A3.769,3.769,0,0,1,431.175,571.934Z" transform="translate(-419.9 -556.9)" fill="none" stroke="#444e59" stroke-linecap="round" stroke-linejoin="round" stroke-width="2" stroke-dasharray="4.079 4.079"/>
          </g>
          <g id="XMLID_35_" transform="translate(41.577)">
            <path id="Path_135" data-name="Path 135" d="M519.675,571.934h-7.517a3.769,3.769,0,0,1-3.758-3.758v-7.517a3.769,3.769,0,0,1,3.758-3.758h7.517a3.769,3.769,0,0,1,3.758,3.758v7.517A3.769,3.769,0,0,1,519.675,571.934Z" transform="translate(-508.4 -556.9)" fill="none" stroke="#444e59" stroke-linecap="round" stroke-linejoin="round" stroke-width="2" stroke-dasharray="4.079 4.079"/>
          </g>
          <g id="XMLID_34_" transform="translate(20.906)">
            <path id="Path_136" data-name="Path 136" d="M475.675,571.934h-7.517a3.769,3.769,0,0,1-3.758-3.758v-7.517a3.769,3.769,0,0,1,3.758-3.758h7.517a3.769,3.769,0,0,1,3.758,3.758v7.517A3.769,3.769,0,0,1,475.675,571.934Z" transform="translate(-464.4 -556.9)" fill="none" stroke="#444e59" stroke-linecap="round" stroke-linejoin="round" stroke-width="2" stroke-dasharray="4.079 4.079"/>
          </g>
        </g>
        <g id="XMLID_27_" transform="translate(0 45.101)">
          <g id="XMLID_31_">
            <path id="Path_137" data-name="Path 137" d="M431.175,523.934h-7.517a3.769,3.769,0,0,1-3.758-3.758v-7.517a3.769,3.769,0,0,1,3.758-3.758h7.517a3.769,3.769,0,0,1,3.758,3.758v7.517A3.769,3.769,0,0,1,431.175,523.934Z" transform="translate(-419.9 -508.9)" fill="none" stroke="#444e59" stroke-linecap="round" stroke-linejoin="round" stroke-width="2" stroke-dasharray="4.079 4.079"/>
          </g>
          <g id="XMLID_30_" transform="translate(41.577)">
            <path id="Path_138" data-name="Path 138" d="M519.675,523.934h-7.517a3.769,3.769,0,0,1-3.758-3.758v-7.517a3.769,3.769,0,0,1,3.758-3.758h7.517a3.769,3.769,0,0,1,3.758,3.758v7.517A3.769,3.769,0,0,1,519.675,523.934Z" transform="translate(-508.4 -508.9)" fill="none" stroke="#444e59" stroke-linecap="round" stroke-linejoin="round" stroke-width="2" stroke-dasharray="4.079 4.079"/>
          </g>
          <g id="XMLID_29_" transform="translate(20.906)">
            <path id="Path_139" data-name="Path 139" d="M475.675,523.934h-7.517a3.769,3.769,0,0,1-3.758-3.758v-7.517a3.769,3.769,0,0,1,3.758-3.758h7.517a3.769,3.769,0,0,1,3.758,3.758v7.517A3.769,3.769,0,0,1,475.675,523.934Z" transform="translate(-464.4 -508.9)" fill="none" stroke="#444e59" stroke-linecap="round" stroke-linejoin="round" stroke-width="2" stroke-dasharray="4.079 4.079"/>
          </g>
        </g>
        <g id="XMLID_22_" transform="translate(0 22.55)">
          <g id="XMLID_26_">
            <path id="Path_140" data-name="Path 140" d="M431.175,475.934h-7.517a3.769,3.769,0,0,1-3.758-3.758v-7.517a3.769,3.769,0,0,1,3.758-3.758h7.517a3.769,3.769,0,0,1,3.758,3.758v7.517A3.769,3.769,0,0,1,431.175,475.934Z" transform="translate(-419.9 -460.9)" fill="none" stroke="#444e59" stroke-linecap="round" stroke-linejoin="round" stroke-width="2" stroke-dasharray="4.079 4.079"/>
          </g>
          <g id="XMLID_25_" transform="translate(41.577)">
            <path id="Path_141" data-name="Path 141" d="M519.675,475.934h-7.517a3.769,3.769,0,0,1-3.758-3.758v-7.517a3.769,3.769,0,0,1,3.758-3.758h7.517a3.769,3.769,0,0,1,3.758,3.758v7.517A3.769,3.769,0,0,1,519.675,475.934Z" transform="translate(-508.4 -460.9)" fill="none" stroke="#444e59" stroke-linecap="round" stroke-linejoin="round" stroke-width="2" stroke-dasharray="4.079 4.079"/>
          </g>
          <g id="XMLID_24_" transform="translate(20.906)">
            <path id="Path_142" data-name="Path 142" d="M475.675,475.934h-7.517a3.769,3.769,0,0,1-3.758-3.758v-7.517a3.769,3.769,0,0,1,3.758-3.758h7.517a3.769,3.769,0,0,1,3.758,3.758v7.517A3.769,3.769,0,0,1,475.675,475.934Z" transform="translate(-464.4 -460.9)" fill="none" stroke="#444e59" stroke-linecap="round" stroke-linejoin="round" stroke-width="2" stroke-dasharray="4.079 4.079"/>
          </g>
        </g>
        <g id="XMLID_17_">
          <g id="XMLID_21_">
            <path id="Path_143" data-name="Path 143" d="M431.175,427.934h-7.517a3.769,3.769,0,0,1-3.758-3.758v-7.517a3.769,3.769,0,0,1,3.758-3.758h7.517a3.769,3.769,0,0,1,3.758,3.758v7.517A3.769,3.769,0,0,1,431.175,427.934Z" transform="translate(-419.9 -412.9)" fill="none" stroke="#444e59" stroke-linecap="round" stroke-linejoin="round" stroke-width="2" stroke-dasharray="4.079 4.079"/>
          </g>
          <g id="XMLID_20_" transform="translate(41.577)">
            <path id="Path_144" data-name="Path 144" d="M519.675,427.934h-7.517a3.769,3.769,0,0,1-3.758-3.758v-7.517a3.769,3.769,0,0,1,3.758-3.758h7.517a3.769,3.769,0,0,1,3.758,3.758v7.517A3.769,3.769,0,0,1,519.675,427.934Z" transform="translate(-508.4 -412.9)" fill="none" stroke="#444e59" stroke-linecap="round" stroke-linejoin="round" stroke-width="2" stroke-dasharray="4.079 4.079"/>
          </g>
          <g id="XMLID_19_" transform="translate(20.906)">
            <path id="Path_145" data-name="Path 145" d="M475.675,427.934h-7.517a3.769,3.769,0,0,1-3.758-3.758v-7.517a3.769,3.769,0,0,1,3.758-3.758h7.517a3.769,3.769,0,0,1,3.758,3.758v7.517A3.769,3.769,0,0,1,475.675,427.934Z" transform="translate(-464.4 -412.9)" fill="none" stroke="#444e59" stroke-linecap="round" stroke-linejoin="round" stroke-width="2" stroke-dasharray="4.079 4.079"/>
          </g>
        </g>
      </g>
      <path id="XMLID_73_" d="M431.175,571.934h-7.517a3.769,3.769,0,0,1-3.758-3.758v-7.517a3.769,3.769,0,0,1,3.758-3.758h7.517a3.769,3.769,0,0,1,3.758,3.758v7.517A3.769,3.769,0,0,1,431.175,571.934Z" transform="translate(-294.604 -461.672)" fill="#71a850"/>
      <path id="XMLID_80_" d="M431.6,556.9h-7.517a3.7,3.7,0,0,0-3.383,2.161l14.658,2.631v-1.034A3.769,3.769,0,0,0,431.6,556.9Z" transform="translate(-295.029 -461.672)" fill="#5f8c42" opacity="0.52"/>
      <path id="XMLID_76_" d="M431.175,571.934h-7.517a3.769,3.769,0,0,1-3.758-3.758v-7.517a3.769,3.769,0,0,1,3.758-3.758h7.517a3.769,3.769,0,0,1,3.758,3.758v7.517A3.769,3.769,0,0,1,431.175,571.934Z" transform="translate(-294.604 -461.672)" fill="none" stroke="#444e59" stroke-linecap="round" stroke-linejoin="round" stroke-miterlimit="10" stroke-width="4"/>
      <path id="XMLID_72_" d="M475.675,571.934h-7.517a3.769,3.769,0,0,1-3.758-3.758v-7.517a3.769,3.769,0,0,1,3.758-3.758h7.517a3.769,3.769,0,0,1,3.758,3.758v7.517A3.769,3.769,0,0,1,475.675,571.934Z" transform="translate(-318.198 -461.672)" fill="#f09f54"/>
      <path id="XMLID_79_" d="M476.1,556.9h-7.517a3.7,3.7,0,0,0-3.383,2.161l14.658,2.631v-1.034A3.769,3.769,0,0,0,476.1,556.9Z" transform="translate(-318.622 -461.672)" fill="#d38444" opacity="0.52"/>
      <path id="XMLID_74_" d="M475.675,571.934h-7.517a3.769,3.769,0,0,1-3.758-3.758v-7.517a3.769,3.769,0,0,1,3.758-3.758h7.517a3.769,3.769,0,0,1,3.758,3.758v7.517A3.769,3.769,0,0,1,475.675,571.934Z" transform="translate(-318.198 -461.672)" fill="none" stroke="#444e59" stroke-linecap="round" stroke-linejoin="round" stroke-miterlimit="10" stroke-width="4"/>
      <g id="XMLID_33_" transform="translate(166.873 72.678)">
        <path id="XMLID_70_" d="M519.675,523.934h-7.517a3.769,3.769,0,0,1-3.758-3.758v-7.517a3.769,3.769,0,0,1,3.758-3.758h7.517a3.769,3.769,0,0,1,3.758,3.758v7.517A3.769,3.769,0,0,1,519.675,523.934Z" transform="translate(-508.4 -508.9)" fill="#2fa9ed"/>
      </g>
      <path id="XMLID_119_" d="M520.1,508.9h-7.517a3.7,3.7,0,0,0-3.383,2.161l14.658,2.631v-1.034A3.769,3.769,0,0,0,520.1,508.9Z" transform="translate(-341.951 -436.222)" fill="#288fbc" opacity="0.52"/>
      <g id="XMLID_69_" transform="translate(166.873 72.678)">
        <path id="XMLID_71_" d="M519.675,523.934h-7.517a3.769,3.769,0,0,1-3.758-3.758v-7.517a3.769,3.769,0,0,1,3.758-3.758h7.517a3.769,3.769,0,0,1,3.758,3.758v7.517A3.769,3.769,0,0,1,519.675,523.934Z" transform="translate(-508.4 -508.9)" fill="none" stroke="#444e59" stroke-linecap="round" stroke-linejoin="round" stroke-miterlimit="10" stroke-width="4"/>
      </g>
      <g id="XMLID_13_" transform="translate(146.202 50.128)">
        <g id="Group_156" data-name="Group 156">
          <path id="XMLID_90_" d="M475.675,475.934h-7.517a3.769,3.769,0,0,1-3.758-3.758v-7.517a3.769,3.769,0,0,1,3.758-3.758h7.517a3.769,3.769,0,0,1,3.758,3.758v7.517A3.769,3.769,0,0,1,475.675,475.934Z" transform="translate(-464.4 -460.9)" fill="#e7534e"/>
        </g>
      </g>
      <path id="XMLID_124_" d="M476.1,460.9h-7.517a3.7,3.7,0,0,0-3.383,2.161l14.658,2.631v-1.034A3.769,3.769,0,0,0,476.1,460.9Z" transform="translate(-318.622 -410.772)" fill="#bf4040" opacity="0.52"/>
      <g id="XMLID_18_" transform="translate(146.202 50.128)">
        <path id="XMLID_23_" d="M475.675,475.934h-7.517a3.769,3.769,0,0,1-3.758-3.758v-7.517a3.769,3.769,0,0,1,3.758-3.758h7.517a3.769,3.769,0,0,1,3.758,3.758v7.517A3.769,3.769,0,0,1,475.675,475.934Z" transform="translate(-464.4 -460.9)" fill="none" stroke="#444e59" stroke-linecap="round" stroke-linejoin="round" stroke-miterlimit="10" stroke-width="4"/>
      </g>
      <path id="XMLID_10_" d="M520.209,517.75l4.322,2.49a.925.925,0,0,1,0,1.6l-4.322,2.49a.938.938,0,0,1-1.409-.8v-4.98A.937.937,0,0,1,520.209,517.75Z" transform="translate(-347.041 -440.844)" fill="#fff"/>
      <path id="XMLID_15_" d="M478.45,566.7H474.5a1.514,1.514,0,0,0-1.5,1.5v2.913a1.514,1.514,0,0,0,1.5,1.5h.141l-.329,1.315c-.047.094.094.188.188.094l2.02-1.409h2.02a1.514,1.514,0,0,0,1.5-1.5V568.2A1.6,1.6,0,0,0,478.45,566.7Z" transform="translate(-322.758 -466.868)" fill="#fff"/>
      <path id="XMLID_11_" d="M429.7,570.461l1.738,1.738a.6.6,0,0,0,.846,0l3.9-3.9" transform="translate(-299.8 -467.716)" fill="none" stroke="#fff" stroke-linecap="round" stroke-linejoin="round" stroke-miterlimit="10" stroke-width="4"/>
      <circle id="XMLID_12_" cx="3.523" cy="3.523" r="3.523" transform="translate(150.195 54.121)" fill="none" stroke="#fff" stroke-linecap="round" stroke-linejoin="round" stroke-miterlimit="10" stroke-width="4"/>
      <g id="XMLID_131_" transform="translate(91.752 19.168)">
        <path id="XMLID_115_" d="M382.091,415.207,382,408.16l-4.7.047a11.744,11.744,0,0,0-1.081-2.49l3.289-3.383L374.48,397.4l-3.289,3.383a11.845,11.845,0,0,0-2.537-.987l-.047-4.7-7.047.094.047,4.7a11.742,11.742,0,0,0-2.49,1.081l-3.383-3.289-4.933,5.027L354.185,406a11.849,11.849,0,0,0-.987,2.537l-4.7.047.094,7.047,4.7-.047a11.745,11.745,0,0,0,1.081,2.49l-3.289,3.383,5.027,4.933,3.289-3.383a11.846,11.846,0,0,0,2.537.987l.047,4.7,7.047-.094-.047-4.7a11.746,11.746,0,0,0,2.49-1.081l3.383,3.289,4.933-5.027-3.383-3.289a11.845,11.845,0,0,0,.987-2.537Zm-16.678,2.161a5.5,5.5,0,1,1,5.45-5.544A5.535,5.535,0,0,1,365.413,417.368Z" transform="translate(-348.5 -395.053)" fill="#fff"/>
        <path id="XMLID_191_" d="M382.091,415.207,382,408.16l-4.7.047a11.744,11.744,0,0,0-1.081-2.49l3.289-3.383L374.48,397.4l-3.289,3.383a11.845,11.845,0,0,0-2.537-.987l-.047-4.7-7.047.094.047,4.7a11.742,11.742,0,0,0-2.49,1.081l-3.383-3.289-4.933,5.027L354.185,406a11.849,11.849,0,0,0-.987,2.537l-4.7.047.094,7.047,4.7-.047a11.745,11.745,0,0,0,1.081,2.49l-3.289,3.383,5.027,4.933,3.289-3.383a11.846,11.846,0,0,0,2.537.987l.047,4.7,7.047-.094-.047-4.7a11.746,11.746,0,0,0,2.49-1.081l3.383,3.289,4.933-5.027-3.383-3.289a11.845,11.845,0,0,0,.987-2.537Zm-16.678,2.161a5.5,5.5,0,1,1,5.45-5.544A5.535,5.535,0,0,1,365.413,417.368Z" transform="translate(-348.5 -395.053)" fill="#f09f54"/>
        <path id="XMLID_234_" d="M382.091,415.207,382,408.16l-4.7.047a11.744,11.744,0,0,0-1.081-2.49l3.289-3.383L374.48,397.4l-3.289,3.383a11.845,11.845,0,0,0-2.537-.987l-.047-4.7-7.047.094.047,4.7a11.742,11.742,0,0,0-2.49,1.081l-3.383-3.289-4.933,5.027L354.185,406a11.849,11.849,0,0,0-.987,2.537l-4.7.047.094,7.047,4.7-.047a11.745,11.745,0,0,0,1.081,2.49l-3.289,3.383,5.027,4.933,3.289-3.383a11.846,11.846,0,0,0,2.537.987l.047,4.7,7.047-.094-.047-4.7a11.746,11.746,0,0,0,2.49-1.081l3.383,3.289,4.933-5.027-3.383-3.289a11.845,11.845,0,0,0,.987-2.537Zm-16.678,2.161a5.5,5.5,0,1,1,5.45-5.544A5.535,5.535,0,0,1,365.413,417.368Z" transform="translate(-348.5 -395.053)" fill="#f09f54"/>
        <g id="XMLID_246_" transform="translate(0.094)" opacity="0.29">
          <path id="XMLID_250_" d="M416.2,422.947h1.738V422.9Z" transform="translate(-384.489 -409.793)" fill="#f09f54"/>
          <path id="XMLID_252_" d="M400.814,403.483l1.832-1.879-1.5-1.5-2.443,2.49A10.581,10.581,0,0,1,400.814,403.483Z" transform="translate(-375.21 -397.704)" fill="#f09f54"/>
          <path id="XMLID_255_" d="M388.909,419.1a6.4,6.4,0,0,0-1.409.188,5.44,5.44,0,0,1,3.993,5.215,5.511,5.511,0,0,1-3.993,5.356,4.265,4.265,0,0,0,1.55.188,5.474,5.474,0,1,0-.141-10.946Z" transform="translate(-369.272 -407.778)" fill="#f09f54"/>
          <path id="XMLID_259_" d="M375.6,399.98l.94.893a14.759,14.759,0,0,1,2.49-1.081l-.047-4.7,4.04-.047V395l-7.047.094.047,4.7A1.161,1.161,0,0,1,375.6,399.98Z" transform="translate(-362.962 -395)" fill="#f09f54"/>
          <path id="XMLID_263_" d="M379.583,455.387a11.844,11.844,0,0,1-2.537-.987l-.846.893.423.141.047,4.7,2.96-.047Z" transform="translate(-363.281 -426.494)" fill="#f09f54"/>
          <path id="XMLID_267_" d="M351.66,411.4l4.7-.047a11.845,11.845,0,0,1,.987-2.537l-3.383-3.289L357.438,402l-1.5-1.5L351,405.527l3.383,3.289a11.847,11.847,0,0,0-.987,2.537l-4.7.047.094,7.047,2.96-.047Z" transform="translate(-348.7 -397.916)" fill="#f09f54"/>
          <path id="XMLID_270_" d="M401.42,454.1a11.019,11.019,0,0,1-2.02.893l2.443,2.4,1.456-1.5Z" transform="translate(-375.581 -426.335)" fill="#f09f54"/>
          <path id="XMLID_271_" d="M357.007,444.372l3.289-3.383a14.759,14.759,0,0,1-1.081-2.49l-2.96.047a14.119,14.119,0,0,0,1.034,2.443L354,444.372l5.027,4.933,1.456-1.5Z" transform="translate(-351.51 -418.064)" fill="#f09f54"/>
        </g>
        <path id="XMLID_130_" d="M382.091,415.207,382,408.16l-4.7.047a11.744,11.744,0,0,0-1.081-2.49l3.289-3.383L374.48,397.4l-3.289,3.383a11.845,11.845,0,0,0-2.537-.987l-.047-4.7-7.047.094.047,4.7a11.742,11.742,0,0,0-2.49,1.081l-3.383-3.289-4.933,5.027L354.185,406a11.849,11.849,0,0,0-.987,2.537l-4.7.047.094,7.047,4.7-.047a11.745,11.745,0,0,0,1.081,2.49l-3.289,3.383,5.027,4.933,3.289-3.383a11.846,11.846,0,0,0,2.537.987l.047,4.7,7.047-.094-.047-4.7a11.746,11.746,0,0,0,2.49-1.081l3.383,3.289,4.933-5.027-3.383-3.289a11.845,11.845,0,0,0,.987-2.537Zm-16.678,2.161a5.5,5.5,0,1,1,5.45-5.544A5.535,5.535,0,0,1,365.413,417.368Z" transform="translate(-348.5 -395.053)" fill="none" stroke="#444e59" stroke-linecap="round" stroke-linejoin="round" stroke-miterlimit="10" stroke-width="4"/>
      </g>
      <g id="XMLID_190_" transform="translate(34.389 94.242)">
        <path id="XMLID_183_" d="M287.991,601.5H229.877a3.469,3.469,0,0,1-3.477-3.476V558.276a3.469,3.469,0,0,1,3.477-3.477h58.161a3.469,3.469,0,0,1,3.477,3.477v39.745A3.539,3.539,0,0,1,287.991,601.5Z" transform="translate(-226.4 -554.8)" fill="#444e59"/>
        <path id="XMLID_134_" d="M291.467,562.364H226.4v-4.087a3.469,3.469,0,0,1,3.477-3.477h58.161a3.469,3.469,0,0,1,3.477,3.477v4.087Z" transform="translate(-226.4 -554.8)" fill="#bcbcbc"/>
        <path id="XMLID_132_" d="M287.991,601.5H229.877a3.469,3.469,0,0,1-3.477-3.476V558.276a3.469,3.469,0,0,1,3.477-3.477h58.161a3.469,3.469,0,0,1,3.477,3.477v39.745A3.539,3.539,0,0,1,287.991,601.5Z" transform="translate(-226.4 -554.8)" fill="none" stroke="#444e59" stroke-linecap="round" stroke-linejoin="round" stroke-miterlimit="10" stroke-width="4"/>
        <path id="XMLID_182_" d="M287.991,601.5H229.877a3.469,3.469,0,0,1-3.477-3.476V558.276a3.469,3.469,0,0,1,3.477-3.477h58.161a3.469,3.469,0,0,1,3.477,3.477v39.745A3.539,3.539,0,0,1,287.991,601.5Z" transform="translate(-226.4 -554.8)" fill="none" stroke="#444e59" stroke-linecap="round" stroke-linejoin="round" stroke-miterlimit="10" stroke-width="4"/>
        <path id="XMLID_133_" d="M291.467,562.364H226.4v-4.087a3.469,3.469,0,0,1,3.477-3.477h58.161a3.469,3.469,0,0,1,3.477,3.477v4.087Z" transform="translate(-226.4 -554.8)" fill="none" stroke="#444e59" stroke-linecap="round" stroke-linejoin="round" stroke-miterlimit="10" stroke-width="4"/>
        <g id="XMLID_135_" transform="translate(3.805 12.356)">
          <g id="XMLID_169_" transform="translate(0 28.376)">
            <line id="XMLID_172_" x2="7.329" transform="translate(5.168)" fill="none" stroke="#fff" stroke-linecap="round" stroke-linejoin="round" stroke-miterlimit="10" stroke-width="4"/>
            <line id="XMLID_171_" x2="0.517" fill="none" stroke="#fff" stroke-linecap="round" stroke-linejoin="round" stroke-miterlimit="10" stroke-width="4"/>
          </g>
          <g id="XMLID_165_" transform="translate(0 24.336)">
            <line id="XMLID_168_" x2="18.557" transform="translate(5.168)" fill="none" stroke="#fff" stroke-linecap="round" stroke-linejoin="round" stroke-miterlimit="10" stroke-width="4"/>
            <line id="XMLID_167_" x2="0.517" fill="none" stroke="#fff" stroke-linecap="round" stroke-linejoin="round" stroke-miterlimit="10" stroke-width="4"/>
          </g>
          <g id="XMLID_160_" transform="translate(0 20.248)">
            <line id="XMLID_163_" x2="5.074" transform="translate(32.557)" fill="none" stroke="#64bdff" stroke-linecap="round" stroke-linejoin="round" stroke-miterlimit="10" stroke-width="4"/>
            <line id="XMLID_185_" x2="9.396" transform="translate(18.745)" fill="none" stroke="#fff" stroke-linecap="round" stroke-linejoin="round" stroke-miterlimit="10" stroke-width="4"/>
            <line id="XMLID_164_" x2="9.302" transform="translate(5.168)" fill="none" stroke="#ff5f5f" stroke-linecap="round" stroke-linejoin="round" stroke-miterlimit="10" stroke-width="4"/>
            <line id="XMLID_162_" x2="0.517" fill="none" stroke="#fff" stroke-linecap="round" stroke-linejoin="round" stroke-miterlimit="10" stroke-width="4"/>
          </g>
          <g id="XMLID_156_" transform="translate(0 16.208)">
            <line id="XMLID_173_" x2="22.644" transform="translate(20.812)" fill="none" stroke="#fff" stroke-linecap="round" stroke-linejoin="round" stroke-miterlimit="10" stroke-width="4"/>
            <line id="XMLID_159_" x2="11.839" transform="translate(5.168)" fill="none" stroke="#64bdff" stroke-linecap="round" stroke-linejoin="round" stroke-miterlimit="10" stroke-width="4"/>
            <line id="XMLID_158_" x2="0.517" fill="none" stroke="#fff" stroke-linecap="round" stroke-linejoin="round" stroke-miterlimit="10" stroke-width="4"/>
          </g>
          <g id="XMLID_152_" transform="translate(0 12.168)">
            <line id="XMLID_170_" x2="8.456" transform="translate(20.812)" fill="none" stroke="#ff5f5f" stroke-linecap="round" stroke-linejoin="round" stroke-miterlimit="10" stroke-width="4"/>
            <line id="XMLID_155_" x2="11.839" transform="translate(5.168)" fill="none" stroke="#ffbe78" stroke-linecap="round" stroke-linejoin="round" stroke-miterlimit="10" stroke-width="4"/>
            <line id="XMLID_154_" x2="0.517" fill="none" stroke="#fff" stroke-linecap="round" stroke-linejoin="round" stroke-miterlimit="10" stroke-width="4"/>
          </g>
          <g id="XMLID_148_" transform="translate(0 8.128)">
            <line id="XMLID_157_" x2="2.302" transform="translate(22.456)" fill="none" stroke="#64bdff" stroke-linecap="round" stroke-linejoin="round" stroke-miterlimit="10" stroke-width="4"/>
            <line id="XMLID_161_" x2="5.215" transform="translate(13.53)" fill="none" stroke="#ff5f5f" stroke-linecap="round" stroke-linejoin="round" stroke-miterlimit="10" stroke-width="4"/>
            <line id="XMLID_151_" x2="4.322" transform="translate(5.168)" fill="none" stroke="#c383f2" stroke-linecap="round" stroke-linejoin="round" stroke-miterlimit="10" stroke-width="4"/>
            <line id="XMLID_150_" x2="0.517" fill="none" stroke="#fff" stroke-linecap="round" stroke-linejoin="round" stroke-miterlimit="10" stroke-width="4"/>
          </g>
          <g id="XMLID_144_" transform="translate(0 4.04)">
            <line id="XMLID_137_" x2="4.087" transform="translate(39.369)" fill="none" stroke="#64bdff" stroke-linecap="round" stroke-linejoin="round" stroke-miterlimit="10" stroke-width="4"/>
            <line id="XMLID_149_" x2="16.02" transform="translate(18.181)" fill="none" stroke="#ff5f5f" stroke-linecap="round" stroke-linejoin="round" stroke-miterlimit="10" stroke-width="4"/>
            <line id="XMLID_147_" x2="9.537" transform="translate(5.168)" fill="none" stroke="#ffbe78" stroke-linecap="round" stroke-linejoin="round" stroke-miterlimit="10" stroke-width="4"/>
            <line id="XMLID_146_" x2="0.517" fill="none" stroke="#fff" stroke-linecap="round" stroke-linejoin="round" stroke-miterlimit="10" stroke-width="4"/>
          </g>
          <g id="XMLID_139_">
            <line id="XMLID_145_" x2="8.362" transform="translate(29.269)" fill="none" stroke="#ffbe78" stroke-linecap="round" stroke-linejoin="round" stroke-miterlimit="10" stroke-width="4"/>
            <line id="XMLID_138_" x2="6.483" transform="translate(18.745)" fill="none" stroke="#6dbf7b" stroke-linecap="round" stroke-linejoin="round" stroke-miterlimit="10" stroke-width="4"/>
            <line id="XMLID_140_" x2="3.664" transform="translate(11.698)" fill="none" stroke="#ffbe78" stroke-linecap="round" stroke-linejoin="round" stroke-miterlimit="10" stroke-width="4"/>
            <line id="XMLID_143_" x2="3.007" transform="translate(5.168)" fill="none" stroke="#6dbf7b" stroke-linecap="round" stroke-linejoin="round" stroke-miterlimit="10" stroke-width="4"/>
            <line id="XMLID_142_" x2="0.517" fill="none" stroke="#fff" stroke-linecap="round" stroke-linejoin="round" stroke-miterlimit="10" stroke-width="4"/>
          </g>
        </g>
        <g id="XMLID_153_" transform="translate(5.262 2.631)">
          <circle id="XMLID_136_" cx="1.174" cy="1.174" r="1.174" fill="#e7534e"/>
          <circle id="XMLID_166_" cx="1.174" cy="1.174" r="1.174" transform="translate(4.228)" fill="#444e59"/>
          <circle id="XMLID_174_" cx="1.174" cy="1.174" r="1.174" transform="translate(8.503)" fill="#444e59"/>
        </g>
      </g>
      <path id="XMLID_176_" d="M355.052,528.324H312.958a3.769,3.769,0,0,1-3.758-3.758V486.558a3.769,3.769,0,0,1,3.758-3.758h42.094a3.769,3.769,0,0,1,3.758,3.758v38.007A3.769,3.769,0,0,1,355.052,528.324Z" transform="translate(-235.911 -422.384)" fill="#fff"/>
      <path id="XMLID_184_" d="M355.052,528.324H312.958a3.769,3.769,0,0,1-3.758-3.758V486.558a3.769,3.769,0,0,1,3.758-3.758h42.094a3.769,3.769,0,0,1,3.758,3.758v38.007A3.769,3.769,0,0,1,355.052,528.324Z" transform="translate(-235.911 -422.384)" fill="#fff"/>
      <path id="XMLID_175_" d="M355.052,528.324H312.958a3.769,3.769,0,0,1-3.758-3.758V486.558a3.769,3.769,0,0,1,3.758-3.758h42.094a3.769,3.769,0,0,1,3.758,3.758v38.007A3.769,3.769,0,0,1,355.052,528.324Z" transform="translate(-235.911 -422.384)" fill="none" stroke="#444e59" stroke-linecap="round" stroke-linejoin="round" stroke-miterlimit="10" stroke-width="4"/>
      <rect id="XMLID_186_" width="40.779" height="27.107" transform="translate(77.564 64.269)" fill="#9483c4"/>
      <rect id="XMLID_177_" width="40.779" height="27.107" transform="translate(77.564 64.269)" fill="none" stroke="#444e59" stroke-linecap="round" stroke-linejoin="round" stroke-miterlimit="10" stroke-width="4"/>
      <line id="XMLID_179_" x2="25.745" transform="translate(77.564 95.698)" fill="none" stroke="#444e59" stroke-linecap="round" stroke-linejoin="round" stroke-miterlimit="10" stroke-width="4"/>
      <line id="XMLID_180_" x2="15.222" transform="translate(77.564 100.02)" fill="none" stroke="#444e59" stroke-linecap="round" stroke-linejoin="round" stroke-miterlimit="10" stroke-width="4"/>
      <path id="XMLID_178_" d="M327,528.591l8.785-8.691,8.174,8.174" transform="translate(-245.349 -442.054)" fill="none" stroke="#444e59" stroke-linecap="round" stroke-linejoin="round" stroke-miterlimit="10" stroke-width="4"/>
      <path id="XMLID_181_" d="M374.121,522.759,363.5,508.9l-8.5,9.49" transform="translate(-260.194 -436.222)" fill="none" stroke="#444e59" stroke-linecap="round" stroke-linejoin="round" stroke-miterlimit="10" stroke-width="4"/>
      <circle id="XMLID_187_" cx="2.302" cy="2.302" r="2.302" transform="translate(111.53 95.369)" fill="none" stroke="#444e59" stroke-linecap="round" stroke-linejoin="round" stroke-miterlimit="10" stroke-width="4"/>
      <circle id="XMLID_189_" cx="2.913" cy="2.913" r="2.913" transform="translate(90.108 69.765)" fill="#f09f54"/>
      <circle id="XMLID_188_" cx="2.913" cy="2.913" r="2.913" transform="translate(90.108 69.765)" fill="none" stroke="#444e59" stroke-linecap="round" stroke-linejoin="round" stroke-miterlimit="10" stroke-width="4"/>
      <g id="XMLID_194_" transform="translate(65.772 41.201)">
        <line id="XMLID_198_" x2="12.591" transform="translate(6.718 5.826)" fill="none" stroke="#444e59" stroke-linecap="round" stroke-linejoin="round" stroke-miterlimit="10" stroke-width="4"/>
        <line id="XMLID_195_" x2="3.336" transform="translate(0 5.826)" fill="none" stroke="#444e59" stroke-linecap="round" stroke-linejoin="round" stroke-miterlimit="10" stroke-width="4"/>
        <line id="XMLID_199_" x2="6.295" transform="translate(13.013)" fill="none" stroke="#444e59" stroke-linecap="round" stroke-linejoin="round" stroke-miterlimit="10" stroke-width="4"/>
        <line id="XMLID_196_" x2="1.879" transform="translate(7.94)" fill="none" stroke="#444e59" stroke-linecap="round" stroke-linejoin="round" stroke-miterlimit="10" stroke-width="4"/>
      </g>
      <g id="XMLID_200_" transform="translate(53.651 78.034)">
        <line id="XMLID_205_" x2="9.819" transform="translate(5.215 5.826)" fill="none" stroke="#444e59" stroke-linecap="round" stroke-linejoin="round" stroke-miterlimit="10" stroke-width="4"/>
        <line id="XMLID_204_" x2="2.584" transform="translate(0 5.826)" fill="none" stroke="#444e59" stroke-linecap="round" stroke-linejoin="round" stroke-miterlimit="10" stroke-width="4"/>
        <line id="XMLID_202_" x2="3.993" transform="translate(11.04)" fill="none" stroke="#444e59" stroke-linecap="round" stroke-linejoin="round" stroke-miterlimit="10" stroke-width="4"/>
        <line id="XMLID_201_" x2="1.503" transform="translate(6.154)" fill="none" stroke="#444e59" stroke-linecap="round" stroke-linejoin="round" stroke-miterlimit="10" stroke-width="4"/>
      </g>
      <g id="XMLID_229_" transform="translate(209.719 9.866)">
        <line id="XMLID_233_" x2="9.302" transform="translate(5.732 5.826)" fill="none" stroke="#444e59" stroke-linecap="round" stroke-linejoin="round" stroke-miterlimit="10" stroke-width="4"/>
        <line id="XMLID_232_" x2="2.631" transform="translate(0 5.826)" fill="none" stroke="#444e59" stroke-linecap="round" stroke-linejoin="round" stroke-miterlimit="10" stroke-width="4"/>
        <line id="XMLID_231_" x2="3.993" transform="translate(11.04)" fill="none" stroke="#444e59" stroke-linecap="round" stroke-linejoin="round" stroke-miterlimit="10" stroke-width="4"/>
        <line id="XMLID_230_" x2="1.456" transform="translate(6.201)" fill="none" stroke="#444e59" stroke-linecap="round" stroke-linejoin="round" stroke-miterlimit="10" stroke-width="4"/>
      </g>
      <path id="XMLID_211_" d="M581.179,428.286H544.44a4.04,4.04,0,0,1-4.04-4.04V406.44a4.04,4.04,0,0,1,4.04-4.04h36.738a4.04,4.04,0,0,1,4.04,4.04V424.2A4.05,4.05,0,0,1,581.179,428.286Z" transform="translate(-358.494 -379.756)" fill="#2fa9ed"/>
      <path id="XMLID_197_" d="M581.179,428.286H544.44a4.04,4.04,0,0,1-4.04-4.04V406.44a4.04,4.04,0,0,1,4.04-4.04h36.738a4.04,4.04,0,0,1,4.04,4.04V424.2A4.05,4.05,0,0,1,581.179,428.286Z" transform="translate(-358.494 -379.756)" fill="none" stroke="#444e59" stroke-linecap="round" stroke-linejoin="round" stroke-miterlimit="10" stroke-width="3"/>
      <line id="XMLID_214_" x2="15.879" transform="translate(204.316 29.597)" fill="none" stroke="#fff" stroke-linecap="round" stroke-linejoin="round" stroke-miterlimit="10" stroke-width="3" opacity="0.56"/>
      <line id="XMLID_216_" x2="10.524" transform="translate(204.316 34.718)" fill="none" stroke="#fff" stroke-linecap="round" stroke-linejoin="round" stroke-miterlimit="10" stroke-width="3" opacity="0.56"/>
      <g id="XMLID_224_" transform="translate(204.363 39.275)" opacity="0.56">
        <path id="XMLID_217_" d="M596.14,440.9H589.75a1.564,1.564,0,0,1-1.55-1.55h0a1.564,1.564,0,0,1,1.55-1.55h6.389a1.564,1.564,0,0,1,1.55,1.55h0A1.534,1.534,0,0,1,596.14,440.9Z" transform="translate(-588.2 -437.8)" fill="#fff"/>
        <path id="XMLID_213_" d="M596.14,440.9H589.75a1.564,1.564,0,0,1-1.55-1.55h0a1.564,1.564,0,0,1,1.55-1.55h6.389a1.564,1.564,0,0,1,1.55,1.55h0A1.534,1.534,0,0,1,596.14,440.9Z" transform="translate(-588.2 -437.8)" fill="none" stroke="#fff" stroke-linecap="round" stroke-linejoin="round" stroke-miterlimit="10" stroke-width="3"/>
      </g>
      <g id="XMLID_226_" transform="translate(187.121 28.47)">
        <path id="XMLID_206_" d="M562.07,428.941h-8.409a2.155,2.155,0,0,1-2.161-2.161v-9.819a2.155,2.155,0,0,1,2.161-2.161h8.409a2.155,2.155,0,0,1,2.161,2.161v9.819A2.155,2.155,0,0,1,562.07,428.941Z" transform="translate(-551.5 -414.8)" fill="none" stroke="#fff" stroke-linecap="round" stroke-linejoin="round" stroke-miterlimit="10" stroke-width="3"/>
        <circle id="XMLID_225_" cx="2.255" cy="2.255" r="2.255" transform="translate(4.134 3.195)" fill="none" stroke="#fff" stroke-linecap="round" stroke-linejoin="round" stroke-miterlimit="10" stroke-width="3"/>
        <path id="XMLID_227_" d="M556,439.575a4.275,4.275,0,1,1,8.55,0" transform="translate(-553.886 -425.669)" fill="none" stroke="#fff" stroke-linecap="round" stroke-linejoin="round" stroke-miterlimit="10" stroke-width="3"/>
      </g>
    </g>
    <g id="Group_157" data-name="Group 157" transform="translate(186.603 572.14)">
      <path id="Path_146" data-name="Path 146" d="M235.857,832.406h-6.812l-1.128,3.242H224.3l6.154-17.148h3.993l6.154,17.148h-3.617Zm-3.43-9.913-2.49,7.188h4.98Z" transform="translate(-224.3 -818.312)" fill="#e2e2e2"/>
      <path id="Path_147" data-name="Path 147" d="M275.4,829.07H272.53v6.577H269.1V818.5h6.3c4.134,0,6.2,2.349,6.2,5.309C281.6,826.44,279.811,829.07,275.4,829.07Zm-.141-2.772c1.926,0,2.819-.94,2.819-2.49s-.846-2.49-2.819-2.49H272.53v4.98Z" transform="translate(-248.053 -818.312)" fill="#e2e2e2"/>
      <path id="Path_148" data-name="Path 148" d="M312.4,829.07H309.53v6.577H306.1V818.5h6.3c4.134,0,6.2,2.349,6.2,5.309C318.6,826.44,316.811,829.07,312.4,829.07Zm-.141-2.772c1.926,0,2.819-.94,2.819-2.49s-.846-2.49-2.819-2.49H309.53v4.98Z" transform="translate(-267.67 -818.312)" fill="#e2e2e2"/>
      <path id="Path_149" data-name="Path 149" d="M375.787,827.1c0,5.168-3.57,8.55-9.02,8.55H360.8V818.5h5.966C372.216,818.5,375.787,821.93,375.787,827.1Zm-9.161,5.638c3.617,0,5.638-2.067,5.638-5.638s-2.02-5.685-5.638-5.685h-2.443v11.322Z" transform="translate(-296.672 -818.312)" fill="#e2e2e2"/>
      <path id="Path_150" data-name="Path 150" d="M413.307,821.272h-6.483v4.275h5.732v2.725h-5.779v4.557h6.483v2.819H403.3V818.5h9.96v2.772Z" transform="translate(-319.206 -818.312)" fill="#e2e2e2"/>
      <path id="Path_151" data-name="Path 151" d="M446.607,818.5h3.664l-6.3,17.148H439.8L433.5,818.5h3.664l4.7,13.624Z" transform="translate(-335.218 -818.312)" fill="#e2e2e2"/>
      <path id="Path_152" data-name="Path 152" d="M488.76,821.272h-6.483v4.275h5.779v2.725h-5.779v4.557h6.483v2.819H478.8V818.5h9.96Z" transform="translate(-359.236 -818.312)" fill="#e2e2e2"/>
      <path id="Path_153" data-name="Path 153" d="M515.23,818.5v14.423h5.638v2.725H511.8V818.5Z" transform="translate(-376.733 -818.312)" fill="#e2e2e2"/>
      <path id="Path_154" data-name="Path 154" d="M547.985,835.624a8.762,8.762,0,1,1,8.738-8.785A8.6,8.6,0,0,1,547.985,835.624Zm0-3.1c3.1,0,5.215-2.255,5.215-5.732s-2.114-5.685-5.215-5.685-5.262,2.161-5.262,5.685S544.885,832.523,547.985,832.523Z" transform="translate(-391.26 -818.1)" fill="#e2e2e2"/>
      <path id="Path_155" data-name="Path 155" d="M593.6,829.07H590.73v6.577H587.3V818.5h6.3c4.134,0,6.2,2.349,6.2,5.309C599.75,826.44,598.011,829.07,593.6,829.07Zm-.141-2.772c1.926,0,2.819-.94,2.819-2.49s-.846-2.49-2.819-2.49H590.73v4.98Z" transform="translate(-416.763 -818.312)" fill="#e2e2e2"/>
      <path id="Path_156" data-name="Path 156" d="M624.2,818.5h3.9l5.45,12.732L639,818.5h3.9v17.148h-3.43V824.513l-4.6,11.134h-2.584l-4.6-11.134v11.134h-3.43V818.5Z" transform="translate(-436.327 -818.312)" fill="#e2e2e2"/>
      <path id="Path_157" data-name="Path 157" d="M686.307,821.272h-6.483v4.275h5.732v2.725h-5.779v4.557h6.483v2.819H676.3V818.5h9.96v2.772Z" transform="translate(-463.951 -818.312)" fill="#e2e2e2"/>
      <path id="Path_158" data-name="Path 158" d="M724.058,818.5v17.148h-3.43l-7.8-11.745v11.745H709.4V818.5h3.43l7.8,11.792V818.5Z" transform="translate(-481.5 -818.312)" fill="#e2e2e2"/>
      <path id="Path_159" data-name="Path 159" d="M751.1,818.5h12.544v2.772h-4.557v14.376h-3.43V821.272H751.1Z" transform="translate(-503.61 -818.312)" fill="#e2e2e2"/>
    </g>
  </g>
</svg>
